<svg xmlns="http://www.w3.org/2000/svg" viewBox="0 0 95.96 141.32"><defs><style>.cls-1,.cls-2,.cls-4,.cls-5{fill:none;stroke:#000;stroke-linecap:round;}.cls-1,.cls-4{stroke-linejoin:round;}.cls-1,.cls-2{stroke-width:0.52px;}.cls-2,.cls-5{stroke-linejoin:bevel;}.cls-3{fill-rule:evenodd;}.cls-4,.cls-5{stroke-width:0.35px;}</style></defs><title>Asset 3</title><g id="Layer_2" data-name="Layer 2"><g id="Layer_3" data-name="Layer 3"><line class="cls-1" x1="0.29" y1="0.26" x2="95.7" y2="0.26"/><line class="cls-1" x1="3.44" y1="3.44" x2="92.52" y2="3.44"/><line class="cls-1" x1="95.7" y1="141.06" x2="74.15" y2="141.06"/><line class="cls-1" x1="95.7" y1="137.91" x2="95.66" y2="137.91"/><line class="cls-1" x1="92.52" y1="137.91" x2="74.15" y2="137.91"/><line class="cls-1" x1="3.44" y1="137.91" x2="3.44" y2="21.42"/><line class="cls-1" x1="0.29" y1="137.91" x2="0.29" y2="21.42"/><line class="cls-1" x1="95.7" y1="132.31" x2="95.7" y2="22.2"/><line class="cls-1" x1="92.52" y1="132.31" x2="92.52" y2="3.44"/><path class="cls-2" d="M35.53,137.91l0-1.54a28.58,28.58,0,0,0-27-27l-1.54,0"/><rect class="cls-1" x="6.97" y="109.32" width="1.41" height="28.59"/><path class="cls-1" d="M8.38,137.91"/><line class="cls-1" x1="6.97" y1="137.91" x2="3.44" y2="137.91"/><line class="cls-1" x1="6.97" y1="141.06" x2="0.29" y2="141.06"/><line class="cls-1" x1="0.29" y1="137.91" x2="0.26" y2="137.91"/><line class="cls-1" x1="37.14" y1="137.91" x2="35.57" y2="137.91"/><line class="cls-1" x1="37.14" y1="141.06" x2="35.57" y2="141.06"/><polyline class="cls-3" points="74.15 139.88 74.15 139.09 37.14 139.88"/><polyline class="cls-3" points="74.15 139.09 37.14 139.88 37.14 139.09"/><line class="cls-1" x1="3.44" y1="21.42" x2="3.44" y2="3.44"/><line class="cls-1" x1="95.7" y1="22.2" x2="95.7" y2="0.26"/><line class="cls-1" x1="0.29" y1="21.42" x2="0.29" y2="0.26"/><line class="cls-1" x1="95.7" y1="132.31" x2="95.7" y2="137.91"/><line class="cls-1" x1="92.52" y1="132.31" x2="92.52" y2="137.91"/><line class="cls-1" x1="35.57" y1="137.91" x2="35.57" y2="141.06"/><line class="cls-1" x1="0.29" y1="137.91" x2="0.29" y2="141.06"/><line class="cls-1" x1="95.7" y1="137.91" x2="95.7" y2="141.06"/><line class="cls-1" x1="74.15" y1="141.06" x2="74.15" y2="137.91"/><line class="cls-1" x1="6.97" y1="137.91" x2="6.97" y2="141.06"/><line class="cls-1" x1="37.14" y1="137.91" x2="37.14" y2="141.06"/><rect class="cls-4" x="77.98" y="17.88" width="14.54" height="32.98"/><path class="cls-4" d="M92.52,50.86"/><rect class="cls-4" x="34.68" y="50.86" width="57.84" height="24.04"/><line class="cls-4" x1="68.09" y1="37.27" x2="68.02" y2="31.28"/><line class="cls-4" x1="70.31" y1="31.24" x2="70.38" y2="37.24"/><line class="cls-4" x1="50.47" y1="31.47" x2="50.53" y2="37.47"/><line class="cls-4" x1="52.86" y1="37.43" x2="52.76" y2="31.44"/><line class="cls-4" x1="56.13" y1="42.93" x2="64.91" y2="42.84"/><path class="cls-5" d="M52.43,39.3l.07.59a3.67,3.67,0,0,0,3.08,3l.56,0"/><polyline class="cls-5" points="50.53 37.47 50.57 37.76 50.73 38.02 50.93 38.22 51.19 38.35 51.45 38.38"/><line class="cls-4" x1="51.48" y1="38.38" x2="51.94" y2="38.38"/><line class="cls-4" x1="52.4" y1="38.25" x2="52.4" y2="39.3"/><polyline class="cls-5" points="51.91 38.38 52.2 38.35 52.47 38.19 52.66 37.99 52.79 37.73 52.83 37.47"/><path class="cls-5" d="M64.91,42.84l.59-.07a3.67,3.67,0,0,0,3-3.08l0-.56"/><polyline class="cls-5" points="68.09 37.27 68.12 37.56 68.28 37.83 68.48 38.02 68.74 38.15 69 38.19"/><line class="cls-4" x1="68.58" y1="39.1" x2="68.55" y2="38.05"/><polyline class="cls-5" points="69.46 38.19 69.76 38.15 70.02 37.99 70.22 37.79 70.35 37.53 70.38 37.27"/><line class="cls-4" x1="69.46" y1="38.19" x2="69" y2="38.19"/><polyline class="cls-5" points="60.39 28.75 58.88 28.82 57.41 29.02 55.94 29.34"/><path class="cls-5" d="M60.33,25.68,59,25.74l-1.31.16-1.31.23-1.24.36-1.24.43-.29.16a1.49,1.49,0,0,0,1.28,2.59l.33-.13"/><polyline class="cls-5" points="54.04 30.52 53.38 31.47 52.83 32.52"/><line class="cls-4" x1="51.84" y1="30.52" x2="51.38" y2="30.52"/><polyline class="cls-5" points="52.76 31.44 52.73 31.14 52.56 30.88 52.37 30.69 52.1 30.55 51.84 30.52"/><polyline class="cls-5" points="51.38 30.55 51.09 30.59 50.83 30.75 50.63 30.95 50.5 31.21 50.47 31.47"/><polyline class="cls-5" points="55.94 29.34 55.38 29.51 54.89 29.77 54.43 30.13 54.04 30.52"/><polyline class="cls-5" points="66.75 30.42 66.32 30 65.86 29.67 65.34 29.41 64.81 29.25"/><path class="cls-5" d="M65.53,29.44l.33.1A1.47,1.47,0,0,0,67.07,27l-.29-.2"/><polyline class="cls-5" points="66.81 26.76 65.53 26.36 64.26 26.07 62.98 25.84 61.67 25.71 60.36 25.68"/><polyline class="cls-5" points="64.81 29.25 63.37 28.95 61.87 28.79 60.39 28.75"/><polyline class="cls-5" points="68.94 30.36 68.64 30.39 68.38 30.55 68.19 30.75 68.06 31.01 68.02 31.28"/><polyline class="cls-5" points="68.02 32.36 67.43 31.34 66.75 30.39"/><line class="cls-4" x1="68.94" y1="30.33" x2="69.4" y2="30.33"/><polyline class="cls-5" points="70.31 31.24 70.28 30.95 70.12 30.69 69.92 30.49 69.66 30.36 69.4 30.33"/><line class="cls-4" x1="85.41" y1="83.74" x2="85.38" y2="89.74"/><line class="cls-4" x1="87.71" y1="89.74" x2="87.74" y2="83.74"/><line class="cls-4" x1="67.83" y1="89.64" x2="67.89" y2="83.61"/><line class="cls-4" x1="70.18" y1="83.64" x2="70.15" y2="89.64"/><line class="cls-4" x1="73.46" y1="78.11" x2="82.24" y2="78.17"/><path class="cls-5" d="M73.46,78.14l-.59,0a3.73,3.73,0,0,0-3.08,3l0,.56"/><polyline class="cls-5" points="68.81 82.69 68.55 82.73 68.28 82.86 68.06 83.06 67.92 83.32 67.89 83.61"/><line class="cls-4" x1="68.81" y1="82.69" x2="69.27" y2="82.69"/><line class="cls-4" x1="69.72" y1="82.83" x2="69.72" y2="81.78"/><polyline class="cls-5" points="70.18 83.64 70.15 83.38 70.02 83.12 69.82 82.89 69.56 82.76 69.27 82.73"/><path class="cls-5" d="M85.87,81.91l0-.59a3.73,3.73,0,0,0-3-3.08l-.56,0"/><polyline class="cls-5" points="86.36 82.83 86.1 82.86 85.84 82.99 85.61 83.19 85.48 83.45 85.44 83.74"/><line class="cls-4" x1="85.9" y1="81.88" x2="85.9" y2="82.92"/><polyline class="cls-5" points="87.74 83.74 87.7 83.48 87.57 83.22 87.38 82.99 87.12 82.86 86.82 82.83"/><line class="cls-4" x1="86.82" y1="82.83" x2="86.36" y2="82.83"/><polyline class="cls-5" points="73.33 91.73 74.8 92.03 76.28 92.22 77.78 92.29"/><polyline class="cls-5" points="71.3 94.16 72.54 94.58 73.82 94.91 75.13 95.17 76.44 95.3 77.75 95.37"/><path class="cls-5" d="M72.61,91.54l-.33-.13A1.48,1.48,0,0,0,71,94l.29.2"/><polyline class="cls-5" points="70.18 88.56 70.71 89.61 71.39 90.55"/><line class="cls-4" x1="69.23" y1="90.55" x2="68.74" y2="90.55"/><polyline class="cls-5" points="69.23 90.55 69.5 90.52 69.76 90.39 69.99 90.19 70.12 89.93 70.15 89.64"/><polyline class="cls-5" points="67.86 89.64 67.89 89.9 68.02 90.16 68.22 90.39 68.48 90.52 68.78 90.55"/><polyline class="cls-5" points="71.39 90.52 71.79 90.92 72.25 91.28 72.77 91.54 73.33 91.73"/><polyline class="cls-5" points="82.2 91.77 82.76 91.6 83.25 91.34 83.74 90.98 84.14 90.59"/><path class="cls-5" d="M84.17,94.26l.29-.2a1.47,1.47,0,0,0-1.21-2.59l-.33.1"/><polyline class="cls-5" points="77.72 95.37 79.06 95.34 80.37 95.2 81.65 94.98 82.92 94.65 84.17 94.25"/><polyline class="cls-5" points="77.78 92.29 79.25 92.22 80.73 92.06 82.2 91.77"/><polyline class="cls-5" points="85.38 89.74 85.41 90 85.54 90.26 85.74 90.49 86 90.62 86.3 90.65"/><polyline class="cls-5" points="84.14 90.62 84.82 89.67 85.38 88.66"/><line class="cls-4" x1="86.3" y1="90.65" x2="86.76" y2="90.65"/><polyline class="cls-5" points="86.79 90.65 87.05 90.62 87.31 90.49 87.54 90.29 87.67 90.03 87.7 89.74"/><line class="cls-4" x1="61.93" y1="83.74" x2="61.9" y2="89.74"/><line class="cls-4" x1="64.22" y1="89.74" x2="64.26" y2="83.74"/><line class="cls-4" x1="44.34" y1="89.64" x2="44.38" y2="83.61"/><line class="cls-4" x1="46.7" y1="83.64" x2="46.67" y2="89.64"/><line class="cls-4" x1="49.98" y1="78.11" x2="58.75" y2="78.17"/><path class="cls-5" d="M50,78.14l-.59,0a3.73,3.73,0,0,0-3.08,3l0,.56"/><polyline class="cls-5" points="45.33 82.69 45.06 82.73 44.8 82.86 44.57 83.06 44.44 83.32 44.41 83.61"/><line class="cls-4" x1="45.33" y1="82.69" x2="45.78" y2="82.69"/><line class="cls-4" x1="46.24" y1="82.83" x2="46.24" y2="81.78"/><polyline class="cls-5" points="46.7 83.64 46.67 83.38 46.54 83.12 46.34 82.89 46.08 82.76 45.78 82.73"/><path class="cls-5" d="M62.39,81.91l0-.59a3.73,3.73,0,0,0-3-3.08l-.56,0"/><polyline class="cls-5" points="62.85 82.83 62.59 82.86 62.32 82.99 62.09 83.19 61.96 83.45 61.93 83.74"/><line class="cls-4" x1="62.42" y1="81.88" x2="62.39" y2="82.92"/><polyline class="cls-5" points="64.26 83.74 64.22 83.48 64.09 83.22 63.9 82.99 63.63 82.86 63.34 82.83"/><line class="cls-4" x1="63.34" y1="82.83" x2="62.88" y2="82.83"/><polyline class="cls-5" points="49.81 91.73 51.29 92.03 52.76 92.22 54.27 92.29"/><polyline class="cls-5" points="47.81 94.16 49.06 94.58 50.34 94.91 51.65 95.17 52.96 95.3 54.27 95.37"/><path class="cls-5" d="M49.12,91.54l-.33-.13A1.48,1.48,0,0,0,47.52,94l.29.2"/><polyline class="cls-5" points="46.7 88.56 47.23 89.61 47.91 90.55"/><line class="cls-4" x1="45.72" y1="90.55" x2="45.26" y2="90.55"/><polyline class="cls-5" points="45.75 90.55 46.01 90.52 46.27 90.39 46.51 90.19 46.64 89.93 46.67 89.64"/><polyline class="cls-5" points="44.34 89.64 44.38 89.9 44.51 90.16 44.7 90.39 44.97 90.52 45.26 90.55"/><polyline class="cls-5" points="47.91 90.52 48.31 90.92 48.76 91.28 49.29 91.54 49.84 91.73"/><polyline class="cls-5" points="58.69 91.77 59.24 91.6 59.74 91.34 60.23 90.98 60.62 90.59"/><path class="cls-5" d="M60.69,94.26l.29-.2a1.47,1.47,0,0,0-1.21-2.59l-.33.1"/><polyline class="cls-5" points="54.23 95.37 55.58 95.34 56.89 95.2 58.16 94.98 59.44 94.65 60.69 94.25"/><polyline class="cls-5" points="54.27 92.29 55.74 92.22 57.21 92.06 58.69 91.77"/><polyline class="cls-5" points="61.9 89.74 61.93 90 62.06 90.26 62.26 90.49 62.52 90.62 62.81 90.65"/><polyline class="cls-5" points="60.62 90.62 61.31 89.67 61.87 88.66"/><line class="cls-4" x1="62.81" y1="90.65" x2="63.27" y2="90.65"/><polyline class="cls-5" points="63.27 90.65 63.53 90.62 63.8 90.49 64.03 90.29 64.16 90.03 64.19 89.74"/><rect class="cls-4" x="34.68" y="3.44" width="57.84" height="14.44"/><polygon class="cls-4" points="34.68 17.88 5.76 17.88 5.76 3.44 34.68 3.44 5.76 3.44 34.68 17.88"/></g></g></svg>