<svg xmlns="http://www.w3.org/2000/svg" viewBox="0 0 181.97 139.93"><defs><style>.cls-1{fill:#bababa;}.cls-1,.cls-4{fill-rule:evenodd;}.cls-2,.cls-3,.cls-5,.cls-6,.cls-7,.cls-8{fill:none;stroke-linecap:round;}.cls-2,.cls-3,.cls-5,.cls-7,.cls-8{stroke:#000;}.cls-2,.cls-3,.cls-5,.cls-6,.cls-7{stroke-linejoin:round;}.cls-2,.cls-6{stroke-width:0.54px;}.cls-3,.cls-8{stroke-width:0.36px;}.cls-4{fill:#dbdbdb;}.cls-5{stroke-width:0.24px;}.cls-6{stroke:#dbdbdb;}.cls-7{stroke-width:0.72px;}.cls-8{stroke-linejoin:bevel;}</style></defs><title>Asset 1</title><g id="Layer_2" data-name="Layer 2"><g id="Layer_3" data-name="Layer 3"><polyline class="cls-1" points="178.28 0.27 181.7 18.11 178.28 18.11"/><polyline class="cls-1" points="178.28 0.27 181.7 0.27 181.7 18.11"/><polyline class="cls-1" points="136.27 0.27 151.88 18.11 136.27 18.11"/><polyline class="cls-1" points="136.27 0.27 151.88 0.27 151.88 18.11"/><polyline class="cls-1" points="94.29 0.27 109.9 18.11 94.29 18.11"/><polyline class="cls-1" points="94.29 0.27 109.9 0.27 109.9 18.11"/><polyline class="cls-1" points="52.28 0.27 67.89 18.11 52.28 18.11"/><polyline class="cls-1" points="52.28 0.27 67.89 0.27 67.89 18.11"/><polyline class="cls-1" points="0.27 0.27 25.91 18.11 0.27 18.11"/><polyline class="cls-1" points="0.27 0.27 25.91 0.27 25.91 18.11"/><polyline class="cls-1" points="0.27 18.11 18.11 25.91 0.27 25.91"/><polyline class="cls-1" points="0.27 18.11 18.11 18.11 18.11 25.91"/><polyline class="cls-1" points="0.27 52.31 18.11 67.92 0.27 67.92"/><polyline class="cls-1" points="0.27 52.31 18.11 52.31 18.11 67.92"/><polyline class="cls-1" points="0.27 94.32 18.11 109.84 0.27 109.84"/><polyline class="cls-1" points="0.27 94.32 18.11 94.32 18.11 109.84"/><polyline class="cls-1" points="0.27 136.3 18.11 139.66 0.27 139.66"/><polyline class="cls-1" points="0.27 136.3 18.11 136.3 18.11 139.66"/><polyline class="cls-2" points="136.78 18.11 18.11 18.11 25.91 18.11 25.91 8.65"/><polyline class="cls-2" points="25.91 6.07 25.91 0.27 0.27 0.27 0.27 25.91"/><polyline class="cls-2" points="52.28 18.11 67.89 18.11 67.89 8.65"/><polyline class="cls-2" points="67.89 6.07 67.89 0.27 52.28 0.27 52.28 6.07"/><line class="cls-2" x1="52.28" y1="8.65" x2="52.28" y2="18.11"/><polyline class="cls-2" points="94.29 18.11 109.9 18.11 109.9 8.65"/><polyline class="cls-2" points="109.9 6.07 109.9 0.27 94.29 0.27 94.29 6.07"/><line class="cls-2" x1="94.29" y1="8.65" x2="94.29" y2="18.11"/><line class="cls-2" x1="136.27" y1="18.11" x2="136.78" y2="18.11"/><polyline class="cls-2" points="151.34 18.11 151.88 18.11 151.88 8.65"/><polyline class="cls-2" points="151.88 6.07 151.88 0.27 136.27 0.27 136.27 6.07"/><line class="cls-2" x1="136.27" y1="8.65" x2="136.27" y2="18.11"/><line class="cls-2" x1="178.28" y1="0.27" x2="178.28" y2="6.07"/><polyline class="cls-2" points="178.28 8.65 178.28 18.11 151.88 18.11"/><line class="cls-2" x1="136.27" y1="18.11" x2="109.9" y2="18.11"/><line class="cls-2" x1="94.29" y1="18.11" x2="67.89" y2="18.11"/><line class="cls-2" x1="52.28" y1="18.11" x2="25.91" y2="18.11"/><line class="cls-2" x1="25.91" y1="0.27" x2="52.28" y2="0.27"/><line class="cls-2" x1="67.89" y1="0.27" x2="94.29" y2="0.27"/><line class="cls-2" x1="109.9" y1="0.27" x2="136.27" y2="0.27"/><line class="cls-2" x1="151.88" y1="0.27" x2="181.7" y2="0.27"/><polyline class="cls-2" points="18.11 139.66 18.11 136.24 8.65 136.24"/><polyline class="cls-2" points="6.07 136.24 0.27 136.24 0.27 139.66"/><polyline class="cls-2" points="18.11 109.84 18.11 94.32 8.65 94.32"/><polyline class="cls-2" points="6.07 94.32 0.27 94.32 0.27 109.84 6.07 109.84"/><line class="cls-2" x1="8.65" y1="109.84" x2="18.11" y2="109.84"/><polyline class="cls-2" points="18.11 67.92 18.11 52.31 8.65 52.31"/><polyline class="cls-2" points="6.07 52.31 0.27 52.31 0.27 67.92 6.07 67.92"/><line class="cls-2" x1="8.65" y1="67.92" x2="18.11" y2="67.92"/><line class="cls-2" x1="18.11" y1="25.91" x2="18.11" y2="18.11"/><line class="cls-2" x1="0.27" y1="25.91" x2="6.07" y2="25.91"/><polyline class="cls-2" points="8.65 25.91 18.11 25.91 18.11 52.31"/><line class="cls-3" x1="18.11" y1="67.92" x2="18.11" y2="94.32"/><line class="cls-2" x1="18.11" y1="109.84" x2="18.11" y2="136.24"/><line class="cls-2" x1="0.27" y1="136.24" x2="0.27" y2="109.84"/><line class="cls-2" x1="0.27" y1="94.32" x2="0.27" y2="67.92"/><line class="cls-2" x1="0.27" y1="52.31" x2="0.27" y2="25.91"/><polyline class="cls-4" points="8.65 134.76 7.36 136.24 7.36 134.76"/><polyline class="cls-4" points="8.65 134.76 8.65 136.24 7.36 136.24"/><polyline class="cls-4" points="7.36 134.76 6.61 136.24 6.61 134.76"/><polyline class="cls-4" points="7.36 134.76 7.36 136.24 6.61 136.24"/><polyline class="cls-4" points="8.65 109.84 6.61 111.31 6.61 109.84"/><polyline class="cls-4" points="8.65 109.84 8.65 111.31 6.61 111.31"/><polyline class="cls-4" points="6.61 134.76 6.07 136.24 6.07 134.76"/><polyline class="cls-4" points="6.61 134.76 6.61 136.24 6.07 136.24"/><polyline class="cls-4" points="6.61 109.84 6.07 111.31 6.07 109.84"/><polyline class="cls-4" points="6.61 109.84 6.61 111.31 6.07 111.31"/><polyline class="cls-4" points="7.36 111.31 6.61 134.76 6.61 111.31"/><polyline class="cls-4" points="7.36 111.31 7.36 134.76 6.61 134.76"/><rect class="cls-2" x="6.07" y="109.84" width="2.58" height="1.47"/><rect class="cls-2" x="6.07" y="134.76" width="2.58" height="1.47"/><line class="cls-5" x1="6.07" y1="111.31" x2="6.07" y2="134.76"/><line class="cls-5" x1="8.65" y1="134.76" x2="8.65" y2="111.31"/><rect class="cls-2" x="6.61" y="111.31" width="0.75" height="23.45"/><polyline class="cls-4" points="8.65 50.84 7.36 52.31 7.36 50.84"/><polyline class="cls-4" points="8.65 50.84 8.65 52.31 7.36 52.31"/><polyline class="cls-4" points="7.36 50.84 6.61 52.31 6.61 50.84"/><polyline class="cls-4" points="7.36 50.84 7.36 52.31 6.61 52.31"/><polyline class="cls-4" points="8.65 25.91 6.61 27.39 6.61 25.91"/><polyline class="cls-4" points="8.65 25.91 8.65 27.39 6.61 27.39"/><polyline class="cls-4" points="6.61 50.84 6.07 52.31 6.07 50.84"/><polyline class="cls-4" points="6.61 50.84 6.61 52.31 6.07 52.31"/><polyline class="cls-4" points="6.61 25.91 6.07 27.39 6.07 25.91"/><polyline class="cls-4" points="6.61 25.91 6.61 27.39 6.07 27.39"/><polyline class="cls-4" points="7.36 27.39 6.61 50.84 6.61 27.39"/><polyline class="cls-4" points="7.36 27.39 7.36 50.84 6.61 50.84"/><rect class="cls-2" x="6.07" y="25.91" width="2.58" height="1.47"/><rect class="cls-2" x="6.07" y="50.84" width="2.58" height="1.47"/><line class="cls-5" x1="6.07" y1="27.39" x2="6.07" y2="50.84"/><line class="cls-5" x1="8.65" y1="50.84" x2="8.65" y2="27.39"/><rect class="cls-2" x="6.61" y="27.39" width="0.75" height="23.45"/><polyline class="cls-4" points="8.65 92.82 7.36 94.32 7.36 92.82"/><polyline class="cls-4" points="8.65 92.82 8.65 94.32 7.36 94.32"/><polyline class="cls-4" points="7.36 92.82 6.61 94.32 6.61 92.82"/><polyline class="cls-4" points="7.36 92.82 7.36 94.32 6.61 94.32"/><polyline class="cls-4" points="8.65 67.92 6.61 69.39 6.61 67.92"/><polyline class="cls-4" points="8.65 67.92 8.65 69.39 6.61 69.39"/><polyline class="cls-4" points="6.61 92.82 6.07 94.32 6.07 92.82"/><polyline class="cls-4" points="6.61 92.82 6.61 94.32 6.07 94.32"/><polyline class="cls-4" points="6.61 67.92 6.07 69.39 6.07 67.92"/><polyline class="cls-4" points="6.61 67.92 6.61 69.39 6.07 69.39"/><polyline class="cls-4" points="7.36 69.39 6.61 92.82 6.61 69.39"/><polyline class="cls-4" points="7.36 69.39 7.36 92.82 6.61 92.82"/><rect class="cls-2" x="6.07" y="67.92" width="2.58" height="1.47"/><rect class="cls-2" x="6.07" y="92.82" width="2.58" height="1.5"/><line class="cls-5" x1="6.07" y1="69.39" x2="6.07" y2="92.82"/><line class="cls-5" x1="8.65" y1="92.82" x2="8.65" y2="69.39"/><rect class="cls-2" x="6.61" y="69.39" width="0.75" height="23.42"/><polyline class="cls-1" points="151.88 6.07 153.35 6.64 151.88 6.64"/><polyline class="cls-1" points="151.88 6.07 153.35 6.07 153.35 6.64"/><polyline class="cls-1" points="151.88 6.64 153.35 7.36 151.88 7.36"/><polyline class="cls-1" points="151.88 6.64 153.35 6.64 153.35 7.36"/><polyline class="cls-1" points="176.8 6.07 178.28 8.65 176.8 8.65"/><polyline class="cls-1" points="176.8 6.07 178.28 6.07 178.28 8.65"/><polyline class="cls-1" points="151.88 7.36 153.35 8.65 151.88 8.65"/><polyline class="cls-1" points="151.88 7.36 153.35 7.36 153.35 8.65"/><polyline class="cls-1" points="153.35 6.64 176.8 7.36 153.35 7.36"/><polyline class="cls-1" points="153.35 6.64 176.8 6.64 176.8 7.36"/><rect class="cls-2" x="151.88" y="6.07" width="1.47" height="2.58"/><rect class="cls-2" x="176.8" y="6.07" width="1.47" height="2.58"/><line class="cls-2" x1="153.35" y1="6.07" x2="176.8" y2="6.07"/><line class="cls-2" x1="176.8" y1="8.65" x2="153.35" y2="8.65"/><rect class="cls-2" x="153.35" y="6.64" width="23.45" height="0.72"/><polyline class="cls-1" points="109.9 6.07 111.37 6.64 109.9 6.64"/><polyline class="cls-1" points="109.9 6.07 111.37 6.07 111.37 6.64"/><polyline class="cls-1" points="109.9 6.64 111.37 7.36 109.9 7.36"/><polyline class="cls-1" points="109.9 6.64 111.37 6.64 111.37 7.36"/><polyline class="cls-1" points="134.79 6.07 136.27 8.65 134.79 8.65"/><polyline class="cls-1" points="134.79 6.07 136.27 6.07 136.27 8.65"/><polyline class="cls-1" points="109.9 7.36 111.37 8.65 109.9 8.65"/><polyline class="cls-1" points="109.9 7.36 111.37 7.36 111.37 8.65"/><polyline class="cls-1" points="111.37 6.64 134.79 7.36 111.37 7.36"/><polyline class="cls-1" points="111.37 6.64 134.79 6.64 134.79 7.36"/><rect class="cls-2" x="109.9" y="6.07" width="1.47" height="2.58"/><rect class="cls-2" x="134.79" y="6.07" width="1.47" height="2.58"/><line class="cls-2" x1="111.37" y1="6.07" x2="134.79" y2="6.07"/><line class="cls-2" x1="134.79" y1="8.65" x2="111.37" y2="8.65"/><rect class="cls-2" x="111.37" y="6.64" width="23.42" height="0.72"/><polyline class="cls-1" points="67.89 6.07 69.36 6.64 67.89 6.64"/><polyline class="cls-1" points="67.89 6.07 69.36 6.07 69.36 6.64"/><polyline class="cls-1" points="67.89 6.64 69.36 7.36 67.89 7.36"/><polyline class="cls-1" points="67.89 6.64 69.36 6.64 69.36 7.36"/><polyline class="cls-1" points="92.82 6.07 94.29 8.65 92.82 8.65"/><polyline class="cls-1" points="92.82 6.07 94.29 6.07 94.29 8.65"/><polyline class="cls-1" points="67.89 7.36 69.36 8.65 67.89 8.65"/><polyline class="cls-1" points="67.89 7.36 69.36 7.36 69.36 8.65"/><polyline class="cls-1" points="69.36 6.64 92.82 7.36 69.36 7.36"/><polyline class="cls-1" points="69.36 6.64 92.82 6.64 92.82 7.36"/><rect class="cls-2" x="67.89" y="6.07" width="1.47" height="2.58"/><rect class="cls-2" x="92.82" y="6.07" width="1.47" height="2.58"/><line class="cls-2" x1="69.36" y1="6.07" x2="92.82" y2="6.07"/><line class="cls-2" x1="92.82" y1="8.65" x2="69.36" y2="8.65"/><rect class="cls-2" x="69.36" y="6.64" width="23.45" height="0.72"/><polyline class="cls-1" points="25.91 6.07 27.39 6.64 25.91 6.64"/><polyline class="cls-1" points="25.91 6.07 27.39 6.07 27.39 6.64"/><polyline class="cls-1" points="25.91 6.64 27.39 7.36 25.91 7.36"/><polyline class="cls-1" points="25.91 6.64 27.39 6.64 27.39 7.36"/><polyline class="cls-1" points="50.81 6.07 52.28 8.65 50.81 8.65"/><polyline class="cls-1" points="50.81 6.07 52.28 6.07 52.28 8.65"/><polyline class="cls-1" points="25.91 7.36 27.39 8.65 25.91 8.65"/><polyline class="cls-1" points="25.91 7.36 27.39 7.36 27.39 8.65"/><polyline class="cls-1" points="27.39 6.64 50.81 7.36 27.39 7.36"/><polyline class="cls-1" points="27.39 6.64 50.81 6.64 50.81 7.36"/><rect class="cls-2" x="25.91" y="6.07" width="1.47" height="2.58"/><rect class="cls-2" x="50.81" y="6.07" width="1.47" height="2.58"/><line class="cls-2" x1="27.39" y1="6.07" x2="50.81" y2="6.07"/><line class="cls-2" x1="50.81" y1="8.65" x2="27.39" y2="8.65"/><rect class="cls-2" x="27.39" y="6.64" width="23.42" height="0.72"/><line class="cls-2" x1="151.34" y1="18.11" x2="18.11" y2="18.11"/><line class="cls-2" x1="181.7" y1="139.66" x2="181.7" y2="18.11"/><polyline class="cls-2" points="178.28 18.11 178.28 136.24 173.92 136.24"/><line class="cls-2" x1="147.41" y1="136.24" x2="18.08" y2="136.24"/><line class="cls-2" x1="18.08" y1="139.66" x2="147.41" y2="139.66"/><line class="cls-2" x1="173.92" y1="139.66" x2="181.7" y2="139.66"/><line class="cls-2" x1="181.7" y1="18.11" x2="178.28" y2="18.11"/><rect class="cls-2" x="172.6" y="109.72" width="1.32" height="26.51"/><path class="cls-2" d="M173.92,109.72"/><path class="cls-2" d="M147.41,136.24l.06-1.74a26.5,26.5,0,0,1,24.71-24.71l1.74-.06"/><rect class="cls-2" x="145.97" y="136.24" width="1.44" height="3.42"/><path class="cls-2" d="M147.41,136.24"/><rect class="cls-2" x="173.92" y="136.24" width="1.44" height="3.42"/><path class="cls-2" d="M175.36,136.24"/><line class="cls-6" x1="67.89" y1="9.19" x2="94.29" y2="9.19"/><line class="cls-2" x1="9.19" y1="109.9" x2="9.19" y2="136.3"/><line class="cls-6" x1="0.27" y1="136.3" x2="18.11" y2="136.3"/><line class="cls-6" x1="0.27" y1="109.9" x2="18.11" y2="109.9"/><line class="cls-2" x1="9.19" y1="25.91" x2="9.19" y2="52.31"/><line class="cls-2" x1="9.19" y1="67.92" x2="9.19" y2="94.32"/><line class="cls-6" x1="0.27" y1="94.32" x2="18.11" y2="94.32"/><line class="cls-6" x1="0.27" y1="67.92" x2="18.11" y2="67.92"/><line class="cls-6" x1="0.27" y1="52.31" x2="18.11" y2="52.31"/><line class="cls-6" x1="25.91" y1="9.19" x2="52.28" y2="9.19"/><polyline class="cls-6" points="25.91 18.11 25.91 0.27 0.27 0.27 0.27 25.91 18.11 25.91"/><line class="cls-6" x1="67.89" y1="18.11" x2="67.89" y2="0.27"/><line class="cls-6" x1="52.28" y1="18.11" x2="52.28" y2="0.27"/><line class="cls-6" x1="151.88" y1="9.19" x2="178.28" y2="9.19"/><line class="cls-6" x1="109.9" y1="9.19" x2="136.27" y2="9.19"/><line class="cls-6" x1="109.9" y1="18.11" x2="109.9" y2="0.27"/><line class="cls-6" x1="94.29" y1="18.11" x2="94.29" y2="0.27"/><line class="cls-6" x1="151.88" y1="18.11" x2="151.88" y2="0.27"/><line class="cls-6" x1="136.27" y1="18.11" x2="136.27" y2="0.27"/><line class="cls-6" x1="178.28" y1="18.11" x2="178.28" y2="0.27"/><path class="cls-7" d="M68.82,48.61"/><path class="cls-7" d="M68.82,48.61"/><path class="cls-7" d="M68.82,48.61"/><path class="cls-7" d="M68.82,48.61"/><path class="cls-7" d="M68.82,48.61"/><path class="cls-7" d="M68.82,48.61"/><path class="cls-7" d="M68.82,48.61"/><path class="cls-7" d="M68.82,48.61"/><path class="cls-7" d="M68.82,48.61"/><path class="cls-7" d="M68.82,48.61"/><path class="cls-7" d="M68.82,48.61"/><path class="cls-7" d="M68.82,48.61"/><path class="cls-7" d="M165.87,125.79"/><path class="cls-7" d="M165.87,125.79"/><path class="cls-7" d="M165.87,125.79"/><path class="cls-7" d="M103.24,69"/><path class="cls-7" d="M103.24,69"/><path class="cls-7" d="M103.24,69"/><path class="cls-7" d="M103.24,69"/><path class="cls-7" d="M103.24,69"/><path class="cls-7" d="M103.24,69"/><path class="cls-7" d="M103.24,69"/><path class="cls-7" d="M103.24,69"/><path class="cls-7" d="M103.24,69"/><path class="cls-7" d="M103.24,69"/><path class="cls-7" d="M103.24,69"/><path class="cls-7" d="M103.24,69"/><path class="cls-7" d="M103.24,69"/><path class="cls-7" d="M103.24,69"/><rect class="cls-3" x="62.28" y="74.41" width="22.1" height="61.89"/><path class="cls-3" d="M84.38,136.3"/><line class="cls-3" x1="57.2" y1="112.33" x2="51.71" y2="112.33"/><line class="cls-3" x1="51.71" y1="114.47" x2="57.2" y2="114.47"/><line class="cls-3" x1="51.71" y1="96.24" x2="57.2" y2="96.24"/><line class="cls-3" x1="57.2" y1="98.37" x2="51.71" y2="98.37"/><line class="cls-3" x1="62.28" y1="101.31" x2="62.28" y2="109.36"/><path class="cls-8" d="M62.25,101.31l0-.54A3.43,3.43,0,0,0,59.42,98l-.54,0"/><polyline class="cls-8" points="58.04 97.08 58.01 96.81 57.89 96.6 57.68 96.39 57.47 96.27 57.2 96.24"/><line class="cls-3" x1="58.04" y1="97.08" x2="58.04" y2="97.5"/><line class="cls-3" x1="57.92" y1="97.95" x2="58.88" y2="97.95"/><polyline class="cls-8" points="57.2 98.34 57.47 98.31 57.68 98.19 57.89 97.98 58.01 97.77 58.04 97.5"/><path class="cls-8" d="M58.88,112.72l.54,0a3.43,3.43,0,0,0,2.79-2.79l0-.54"/><polyline class="cls-8" points="58.04 113.17 58.01 112.9 57.89 112.69 57.68 112.48 57.47 112.36 57.2 112.33"/><line class="cls-3" x1="58.88" y1="112.75" x2="57.92" y2="112.75"/><polyline class="cls-8" points="57.2 114.44 57.47 114.41 57.68 114.29 57.89 114.08 58.01 113.86 58.04 113.59"/><line class="cls-3" x1="58.04" y1="113.6" x2="58.04" y2="113.17"/><polyline class="cls-8" points="49.79 101.28 49.52 102.61 49.37 103.96 49.3 105.34"/><polyline class="cls-8" points="47.56 99.42 47.17 100.59 46.87 101.73 46.66 102.94 46.51 104.14 46.48 105.34"/><path class="cls-8" d="M50,100.62l.12-.33a1.35,1.35,0,0,0-2.37-1.11l-.18.27"/><polyline class="cls-8" points="52.7 98.37 51.77 98.88 50.9 99.51"/><line class="cls-3" x1="50.87" y1="97.5" x2="50.87" y2="97.08"/><polyline class="cls-8" points="50.87 97.5 50.9 97.77 51.02 97.98 51.23 98.19 51.44 98.31 51.71 98.34"/><polyline class="cls-8" points="51.71 96.24 51.44 96.27 51.23 96.39 51.02 96.6 50.9 96.81 50.87 97.08"/><polyline class="cls-8" points="50.9 99.54 50.51 99.9 50.21 100.32 49.97 100.8 49.79 101.28"/><polyline class="cls-8" points="49.79 109.42 49.97 109.9 50.21 110.38 50.51 110.8 50.9 111.16"/><path class="cls-8" d="M47.53,111.25l.18.27a1.35,1.35,0,0,0,2.37-1.11l-.12-.33"/><polyline class="cls-8" points="46.48 105.37 46.51 106.57 46.66 107.77 46.87 108.97 47.17 110.11 47.56 111.28"/><polyline class="cls-8" points="49.3 105.34 49.37 106.72 49.52 108.07 49.79 109.39"/><polyline class="cls-8" points="51.71 112.33 51.44 112.36 51.23 112.48 51.02 112.69 50.9 112.9 50.87 113.17"/><polyline class="cls-8" points="50.9 111.19 51.77 111.82 52.7 112.33"/><line class="cls-3" x1="50.87" y1="113.17" x2="50.87" y2="113.6"/><polyline class="cls-8" points="50.87 113.59 50.9 113.86 51.02 114.08 51.23 114.29 51.44 114.41 51.71 114.44"/><rect class="cls-3" x="31.35" y="118.61" width="30.93" height="17.69"/><path class="cls-3" d="M62.28,136.3"/><rect class="cls-3" x="18.11" y="74.44" width="13.24" height="61.86"/><path class="cls-3" d="M31.35,136.3"/><path class="cls-8" d="M160.83,52.7l0-1.14-.12-1.17-.18-1.14a17.7,17.7,0,0,0-16.19-14.17l-1.14,0-1.14,0a17.68,17.68,0,0,0-16.37,15.31l-.12,1.17,0,1.14,0,1.14.12,1.17A17.67,17.67,0,0,0,140.86,70.2l1.17.12,1.14,0a17.68,17.68,0,0,0,17.33-14.2l.18-1.14.12-1.17Z"/><line class="cls-3" x1="132" y1="73.75" x2="128.1" y2="77.62"/><line class="cls-3" x1="129.6" y1="79.12" x2="133.5" y2="75.22"/><line class="cls-3" x1="116.75" y1="66.24" x2="120.62" y2="62.37"/><line class="cls-3" x1="122.12" y1="63.87" x2="118.22" y2="67.74"/><line class="cls-3" x1="127.8" y1="62.37" x2="133.5" y2="68.04"/><path class="cls-8" d="M127.8,62.37l-.39-.36a3.4,3.4,0,0,0-4,0l-.39.36"/><polyline class="cls-8" points="121.82 62.37 121.61 62.22 121.34 62.13 121.1 62.13 120.83 62.22 120.62 62.37"/><line class="cls-3" x1="121.82" y1="62.37" x2="122.12" y2="62.67"/><line class="cls-3" x1="122.33" y1="63.03" x2="123.02" y2="62.37"/><polyline class="cls-8" points="122.12 63.87 122.27 63.66 122.36 63.39 122.36 63.15 122.27 62.88 122.12 62.67"/><path class="cls-8" d="M133.47,72.82l.36-.39a3.4,3.4,0,0,0,0-4l-.36-.39"/><polyline class="cls-8" points="133.2 73.75 132.99 73.6 132.72 73.51 132.48 73.51 132.21 73.6 132 73.75"/><line class="cls-3" x1="133.5" y1="72.85" x2="132.81" y2="73.51"/><polyline class="cls-8" points="133.5 75.25 133.65 75.04 133.74 74.77 133.74 74.53 133.65 74.26 133.5 74.05"/><line class="cls-3" x1="133.5" y1="74.05" x2="133.2" y2="73.75"/><polyline class="cls-8" points="118.94 71.17 119.69 72.31 120.53 73.36 121.46 74.38"/><polyline class="cls-8" points="116.06 71.44 116.6 72.52 117.23 73.57 117.92 74.56 118.67 75.49 119.48 76.36"/><path class="cls-8" d="M118.64,70.54l-.15-.27a1.36,1.36,0,0,0-2.49.84l.09.33"/><polyline class="cls-8" points="118.94 67.05 118.64 68.07 118.49 69.12"/><line class="cls-3" x1="117.05" y1="67.74" x2="116.75" y2="67.44"/><polyline class="cls-8" points="117.02 67.74 117.23 67.89 117.5 67.98 117.74 67.98 118.01 67.89 118.22 67.74"/><polyline class="cls-8" points="116.72 66.24 116.57 66.45 116.48 66.72 116.48 66.96 116.57 67.23 116.72 67.44"/><polyline class="cls-8" points="118.46 69.15 118.46 69.66 118.55 70.2 118.7 70.69 118.94 71.17"/><polyline class="cls-8" points="124.7 76.9 125.19 77.14 125.67 77.29 126.21 77.38 126.72 77.38"/><path class="cls-8" d="M124.41,79.78l.33.09a1.36,1.36,0,0,0,.84-2.49l-.27-.15"/><polyline class="cls-8" points="119.48 76.39 120.35 77.2 121.28 77.95 122.27 78.64 123.32 79.27 124.41 79.81"/><polyline class="cls-8" points="121.46 74.38 122.48 75.31 123.53 76.15 124.67 76.9"/><polyline class="cls-8" points="128.1 77.62 127.95 77.83 127.86 78.1 127.86 78.34 127.95 78.61 128.1 78.82"/><polyline class="cls-8" points="126.75 77.38 127.8 77.23 128.82 76.93"/><line class="cls-3" x1="128.1" y1="78.82" x2="128.4" y2="79.12"/><polyline class="cls-8" points="128.4 79.12 128.61 79.27 128.88 79.36 129.12 79.36 129.39 79.27 129.6 79.12"/><line class="cls-3" x1="164.19" y1="41.53" x2="168.1" y2="37.65"/><line class="cls-3" x1="169.6" y1="39.16" x2="165.69" y2="43.03"/><line class="cls-3" x1="156.72" y1="26.27" x2="152.81" y2="30.15"/><line class="cls-3" x1="154.31" y1="31.65" x2="158.22" y2="27.78"/><line class="cls-3" x1="152.81" y1="37.35" x2="158.52" y2="43.03"/><path class="cls-8" d="M152.84,32.58l-.36.39a3.4,3.4,0,0,0,0,4l.36.39"/><polyline class="cls-8" points="152.81 30.15 152.66 30.36 152.57 30.63 152.57 30.87 152.66 31.14 152.81 31.35"/><line class="cls-3" x1="152.81" y1="31.35" x2="153.11" y2="31.65"/><line class="cls-3" x1="153.5" y1="31.89" x2="152.81" y2="32.55"/><polyline class="cls-8" points="153.11 31.65 153.32 31.8 153.59 31.89 153.83 31.89 154.1 31.8 154.31 31.65"/><path class="cls-8" d="M158.52,43l.39.36a3.4,3.4,0,0,0,4,0l.39-.36"/><polyline class="cls-8" points="164.19 41.53 164.04 41.74 163.95 42.01 163.95 42.25 164.04 42.52 164.19 42.73"/><line class="cls-3" x1="163.29" y1="43.03" x2="163.98" y2="42.37"/><polyline class="cls-8" points="164.49 43.03 164.7 43.18 164.97 43.27 165.21 43.27 165.48 43.18 165.69 43.03"/><line class="cls-3" x1="164.49" y1="43.03" x2="164.19" y2="42.73"/><polyline class="cls-8" points="164.85 31.02 163.83 30.09 162.78 29.25 161.64 28.5"/><polyline class="cls-8" points="166.83 29.01 165.96 28.2 165.03 27.45 164.04 26.75 162.99 26.12 161.91 25.58"/><path class="cls-8" d="M161.91,25.61l-.33-.09a1.36,1.36,0,0,0-.84,2.49l.27.15"/><polyline class="cls-8" points="159.6 28.02 158.55 28.17 157.53 28.47"/><line class="cls-3" x1="158.22" y1="26.57" x2="157.92" y2="26.27"/><polyline class="cls-8" points="158.22 27.78 158.37 27.57 158.46 27.3 158.46 27.05 158.37 26.79 158.22 26.57"/><polyline class="cls-8" points="157.92 26.27 157.71 26.12 157.44 26.03 157.2 26.03 156.93 26.12 156.72 26.27"/><polyline class="cls-8" points="161.61 28.5 161.13 28.26 160.65 28.11 160.11 28.02 159.6 28.02"/><polyline class="cls-8" points="167.85 36.24 167.85 35.73 167.76 35.19 167.62 34.71 167.38 34.23"/><path class="cls-8" d="M167.68,34.86l.15.27a1.36,1.36,0,0,0,2.49-.84l-.09-.33"/><polyline class="cls-8" points="170.29 33.96 169.75 32.88 169.12 31.83 168.43 30.84 167.68 29.91 166.86 29.04"/><polyline class="cls-8" points="167.38 34.23 166.62 33.09 165.78 32.04 164.85 31.02"/><polyline class="cls-8" points="169.3 37.66 169.09 37.51 168.82 37.41 168.58 37.41 168.31 37.51 168.1 37.66"/><polyline class="cls-8" points="167.38 38.34 167.68 37.32 167.82 36.27"/><line class="cls-3" x1="169.3" y1="37.65" x2="169.6" y2="37.95"/><polyline class="cls-8" points="169.6 39.16 169.75 38.95 169.84 38.68 169.84 38.44 169.75 38.16 169.6 37.95"/><line class="cls-3" x1="164.19" y1="63.87" x2="168.1" y2="67.74"/><line class="cls-3" x1="169.6" y1="66.24" x2="165.69" y2="62.37"/><line class="cls-3" x1="156.72" y1="79.12" x2="152.81" y2="75.22"/><line class="cls-3" x1="154.31" y1="73.75" x2="158.22" y2="77.62"/><line class="cls-3" x1="152.81" y1="68.04" x2="158.52" y2="62.37"/><path class="cls-8" d="M152.84,68.07l-.36.39a3.4,3.4,0,0,0,0,4l.36.39"/><polyline class="cls-8" points="152.81 74.05 152.66 74.26 152.57 74.53 152.57 74.77 152.66 75.04 152.81 75.25"/><line class="cls-3" x1="152.81" y1="74.05" x2="153.11" y2="73.75"/><line class="cls-3" x1="153.5" y1="73.51" x2="152.81" y2="72.85"/><polyline class="cls-8" points="154.31 73.75 154.1 73.6 153.83 73.51 153.59 73.51 153.32 73.6 153.11 73.75"/><path class="cls-8" d="M163.26,62.37l-.39-.36a3.4,3.4,0,0,0-4,0l-.39.36"/><polyline class="cls-8" points="164.19 62.67 164.04 62.88 163.95 63.15 163.95 63.39 164.04 63.66 164.19 63.87"/><line class="cls-3" x1="163.29" y1="62.37" x2="163.98" y2="63.03"/><polyline class="cls-8" points="165.69 62.37 165.48 62.22 165.21 62.13 164.97 62.13 164.7 62.22 164.49 62.37"/><line class="cls-3" x1="164.49" y1="62.37" x2="164.19" y2="62.67"/><polyline class="cls-8" points="161.64 76.9 162.78 76.15 163.83 75.31 164.85 74.38"/><polyline class="cls-8" points="161.91 79.81 162.99 79.27 164.04 78.64 165.03 77.95 165.96 77.2 166.83 76.39"/><path class="cls-8" d="M161,77.23l-.27.15a1.36,1.36,0,0,0,.84,2.49l.33-.09"/><polyline class="cls-8" points="157.53 76.93 158.55 77.23 159.6 77.38"/><line class="cls-3" x1="158.22" y1="78.82" x2="157.92" y2="79.12"/><polyline class="cls-8" points="158.22 78.82 158.37 78.61 158.46 78.34 158.46 78.1 158.37 77.83 158.22 77.62"/><polyline class="cls-8" points="156.72 79.12 156.93 79.27 157.2 79.36 157.44 79.36 157.71 79.27 157.92 79.12"/><polyline class="cls-8" points="159.6 77.38 160.11 77.38 160.65 77.29 161.13 77.14 161.61 76.9"/><polyline class="cls-8" points="167.38 71.17 167.62 70.69 167.76 70.2 167.85 69.66 167.85 69.15"/><path class="cls-8" d="M170.23,71.44l.09-.33a1.36,1.36,0,0,0-2.49-.84l-.15.27"/><polyline class="cls-8" points="166.87 76.36 167.68 75.49 168.43 74.56 169.12 73.57 169.75 72.52 170.29 71.44"/><polyline class="cls-8" points="164.85 74.38 165.78 73.36 166.62 72.31 167.38 71.17"/><polyline class="cls-8" points="168.1 67.74 168.31 67.89 168.58 67.98 168.82 67.98 169.09 67.89 169.3 67.74"/><polyline class="cls-8" points="167.82 69.12 167.68 68.07 167.38 67.05"/><line class="cls-3" x1="169.3" y1="67.74" x2="169.6" y2="67.44"/><polyline class="cls-8" points="169.6 67.44 169.75 67.23 169.84 66.96 169.84 66.72 169.75 66.45 169.6 66.24"/><line class="cls-3" x1="132" y1="31.65" x2="128.1" y2="27.78"/><line class="cls-3" x1="129.6" y1="26.27" x2="133.5" y2="30.15"/><line class="cls-3" x1="116.75" y1="39.16" x2="120.62" y2="43.03"/><line class="cls-3" x1="122.12" y1="41.53" x2="118.22" y2="37.65"/><line class="cls-3" x1="127.8" y1="43.03" x2="133.5" y2="37.35"/><path class="cls-8" d="M123.05,43l.39.36a3.4,3.4,0,0,0,4,0l.39-.36"/><polyline class="cls-8" points="120.62 43.03 120.83 43.18 121.1 43.27 121.34 43.27 121.61 43.18 121.82 43.03"/><line class="cls-3" x1="121.82" y1="43.03" x2="122.12" y2="42.73"/><line class="cls-3" x1="122.33" y1="42.37" x2="123.02" y2="43.03"/><polyline class="cls-8" points="122.12 42.73 122.27 42.52 122.36 42.25 122.36 42.01 122.27 41.74 122.12 41.53"/><path class="cls-8" d="M133.47,37.32l.36-.39a3.4,3.4,0,0,0,0-4l-.36-.39"/><polyline class="cls-8" points="132 31.65 132.21 31.8 132.48 31.89 132.72 31.89 132.99 31.8 133.2 31.65"/><line class="cls-3" x1="133.5" y1="32.55" x2="132.81" y2="31.89"/><polyline class="cls-8" points="133.5 31.35 133.65 31.14 133.74 30.87 133.74 30.63 133.65 30.36 133.5 30.15"/><line class="cls-3" x1="133.5" y1="31.35" x2="133.2" y2="31.65"/><polyline class="cls-8" points="121.46 31.02 120.53 32.04 119.69 33.09 118.94 34.23"/><polyline class="cls-8" points="119.48 29.04 118.67 29.91 117.92 30.84 117.23 31.83 116.6 32.88 116.06 33.96"/><path class="cls-8" d="M116.09,34l-.09.33a1.36,1.36,0,0,0,2.49.84l.15-.27"/><polyline class="cls-8" points="118.49 36.27 118.64 37.32 118.94 38.34"/><line class="cls-3" x1="117.05" y1="37.65" x2="116.75" y2="37.95"/><polyline class="cls-8" points="118.22 37.66 118.01 37.51 117.74 37.41 117.5 37.41 117.23 37.51 117.02 37.66"/><polyline class="cls-8" points="116.72 37.95 116.57 38.16 116.48 38.44 116.48 38.68 116.57 38.95 116.72 39.16"/><polyline class="cls-8" points="118.94 34.23 118.7 34.71 118.55 35.19 118.46 35.73 118.46 36.24"/><polyline class="cls-8" points="126.72 28.02 126.21 28.02 125.67 28.11 125.19 28.26 124.7 28.5"/><path class="cls-8" d="M125.31,28.17l.27-.15a1.36,1.36,0,0,0-.84-2.49l-.33.09"/><polyline class="cls-8" points="124.41 25.58 123.32 26.12 122.27 26.75 121.28 27.45 120.35 28.2 119.48 29.01"/><polyline class="cls-8" points="124.67 28.5 123.53 29.25 122.48 30.09 121.46 31.02"/><polyline class="cls-8" points="128.1 26.57 127.95 26.79 127.86 27.05 127.86 27.3 127.95 27.57 128.1 27.78"/><polyline class="cls-8" points="128.82 28.47 127.8 28.17 126.75 28.02"/><line class="cls-3" x1="128.1" y1="26.57" x2="128.4" y2="26.27"/><polyline class="cls-8" points="129.6 26.27 129.39 26.12 129.12 26.03 128.88 26.03 128.61 26.12 128.4 26.27"/><line class="cls-2" x1="181.7" y1="18.11" x2="181.7" y2="0.27"/><line class="cls-2" x1="18.11" y1="139.66" x2="0.27" y2="139.66"/><polygon class="cls-3" points="18.11 47.89 31.35 47.89 31.35 74.44 18.11 74.44 31.35 74.44 18.11 47.89"/><polygon class="cls-3" points="18.11 21.38 31.35 21.38 31.35 47.89 18.11 47.89 31.35 47.89 18.11 21.38"/></g></g></svg>