<svg xmlns="http://www.w3.org/2000/svg" viewBox="0 0 103.36 115.36"><defs><style>.cls-1,.cls-2,.cls-3,.cls-4,.cls-5{fill:none;stroke:#000;}.cls-1,.cls-5{stroke-miterlimit:10;}.cls-1,.cls-2,.cls-4{stroke-width:0.36px;}.cls-2,.cls-3,.cls-4{stroke-linecap:round;}.cls-2{stroke-linejoin:round;}.cls-3,.cls-4{stroke-linejoin:bevel;}.cls-3{stroke-width:0.54px;}</style></defs><title>Asset 5</title><g id="Layer_2" data-name="Layer 2"><g id="Layer_3" data-name="Layer 3"><rect class="cls-1" x="100.18" y="3.18" width="3" height="112"/><rect class="cls-1" x="0.18" y="3.18" width="3" height="112"/><rect class="cls-1" x="50.18" y="-49.82" width="3" height="103" transform="translate(53.36 -50) rotate(90)"/><rect class="cls-1" x="90.18" y="102.18" width="3" height="23" transform="translate(205.36 22) rotate(90)"/><rect class="cls-2" x="4.26" y="78.56" width="1.49" height="36.62"/><path class="cls-3" d="M37.84,113.6v-1.85c-.65-17.64-13.3-31.67-29.8-33l-1.73-.07"/><path class="cls-4" d="M66.86,34.43l.6,0a3.92,3.92,0,0,0,3.29-3.33l0-.64"/><line class="cls-2" x1="64.75" y1="17.44" x2="58.25" y2="17.49"/><line class="cls-2" x1="58.24" y1="14.97" x2="64.76" y2="14.96"/><line class="cls-2" x1="58.35" y1="36.51" x2="64.88" y2="36.47"/><line class="cls-2" x1="64.85" y1="33.98" x2="58.32" y2="34.01"/><line class="cls-2" x1="70.83" y1="30.44" x2="70.79" y2="20.91"/><polyline class="cls-4" points="64.83 36.49 65.17 36.44 65.43 36.29 65.64 36.07 65.8 35.79 65.85 35.5"/><line class="cls-2" x1="65.86" y1="35.47" x2="65.86" y2="34.96"/><line class="cls-2" x1="65.72" y1="34.48" x2="66.85" y2="34.47"/><polyline class="cls-4" points="65.84 34.99 65.79 34.66 65.64 34.4 65.42 34.19 65.14 34.03 64.85 33.98"/><path class="cls-4" d="M70.76,20.9l0-.6A3.92,3.92,0,0,0,67.39,17l-.64,0"/><polyline class="cls-4" points="64.75 17.44 65.09 17.39 65.35 17.24 65.56 17.02 65.72 16.74 65.77 16.45"/><line class="cls-2" x1="66.76" y1="16.93" x2="65.64" y2="16.94"/><polyline class="cls-4" points="65.76 15.95 65.71 15.62 65.56 15.35 65.34 15.14 65.06 14.98 64.77 14.93"/><line class="cls-2" x1="65.76" y1="15.95" x2="65.77" y2="16.45"/><polyline class="cls-4" points="55.46 25.77 55.53 27.39 55.75 29 56.07 30.58"/><polyline class="cls-4" points="52.12 25.78 52.16 27.19 52.31 28.61 52.59 30.02 52.96 31.38 53.41 32.74"/><path class="cls-4" d="M53.44,32.76l.21.32a1.58,1.58,0,0,0,2.76-1.34l-.11-.36"/><polyline class="cls-4" points="57.36 32.66 58.4 33.39 59.49 33.99"/><line class="cls-2" x1="57.33" y1="35.02" x2="57.34" y2="35.52"/><polyline class="cls-4" points="58.35 34.03 58.02 34.08 57.76 34.23 57.55 34.45 57.38 34.73 57.33 35.02"/><polyline class="cls-4" points="57.36 35.49 57.41 35.82 57.56 36.09 57.78 36.3 58.06 36.46 58.35 36.51"/><polyline class="cls-4" points="56.1 30.59 56.27 31.17 56.57 31.73 56.94 32.2 57.39 32.67"/><polyline class="cls-4" points="57.3 18.86 56.88 19.29 56.51 19.79 56.23 20.33 56.04 20.94"/><path class="cls-4" d="M56.24,20.14l.11-.34a1.59,1.59,0,0,0-2.79-1.34l-.22.33-.44,1.36-.34,1.4L52.32,23l-.15,1.41,0,1.42"/><polyline class="cls-4" points="56.02 20.97 55.72 22.55 55.51 24.16 55.46 25.77"/><polyline class="cls-4" points="57.23 16.46 57.28 16.79 57.44 17.06 57.65 17.27 57.93 17.43 58.22 17.48"/><polyline class="cls-4" points="59.41 17.5 58.3 18.09 57.3 18.86"/><line class="cls-2" x1="57.25" y1="16.51" x2="57.24" y2="16"/><polyline class="cls-4" points="58.27 14.98 57.94 15.03 57.68 15.18 57.47 15.4 57.3 15.68 57.26 15.97"/><path class="cls-4" d="M92.3,81.55l-.05-.6a3.92,3.92,0,0,0-3.38-3.24l-.64,0"/><line class="cls-2" x1="75.34" y1="83.91" x2="75.49" y2="90.41"/><line class="cls-2" x1="72.96" y1="90.46" x2="72.86" y2="83.94"/><line class="cls-2" x1="94.5" y1="90.03" x2="94.37" y2="83.5"/><line class="cls-2" x1="91.87" y1="83.56" x2="92" y2="90.1"/><line class="cls-2" x1="88.24" y1="77.64" x2="78.72" y2="77.82"/><polyline class="cls-4" points="94.39 83.54 94.33 83.21 94.17 82.95 93.95 82.74 93.67 82.59 93.38 82.54"/><line class="cls-2" x1="93.35" y1="82.53" x2="92.84" y2="82.55"/><line class="cls-2" x1="92.36" y1="82.69" x2="92.33" y2="81.56"/><polyline class="cls-4" points="92.87 82.56 92.54 82.61 92.28 82.77 92.07 82.99 91.92 83.27 91.87 83.56"/><path class="cls-4" d="M78.71,77.85l-.6.05a3.92,3.92,0,0,0-3.24,3.38l0,.64"/><polyline class="cls-4" points="75.34 83.91 75.29 83.58 75.13 83.32 74.91 83.11 74.63 82.95 74.34 82.91"/><line class="cls-2" x1="74.8" y1="81.9" x2="74.82" y2="83.03"/><polyline class="cls-4" points="73.83 82.92 73.5 82.97 73.24 83.13 73.03 83.36 72.87 83.64 72.83 83.92"/><line class="cls-2" x1="73.83" y1="82.92" x2="74.34" y2="82.9"/><polyline class="cls-4" points="83.81 93.07 85.42 92.98 87.03 92.74 88.6 92.4"/><polyline class="cls-4" points="83.86 96.41 85.28 96.35 86.7 96.18 88.09 95.89 89.45 95.5 90.81 95.03"/><path class="cls-4" d="M90.82,95l.32-.21A1.58,1.58,0,0,0,89.76,92l-.36.12"/><polyline class="cls-4" points="90.67 91.07 91.38 90.02 91.96 88.92"/><line class="cls-2" x1="93.02" y1="91.06" x2="93.53" y2="91.05"/><polyline class="cls-4" points="92.02 90.06 92.07 90.39 92.23 90.65 92.45 90.86 92.73 91.02 93.02 91.06"/><polyline class="cls-4" points="93.5 91.03 93.83 90.98 94.09 90.82 94.3 90.6 94.45 90.32 94.5 90.03"/><polyline class="cls-4" points="88.62 92.37 89.19 92.19 89.75 91.88 90.22 91.5 90.68 91.04"/><polyline class="cls-4" points="76.87 91.34 77.31 91.75 77.81 92.12 78.35 92.39 78.97 92.57"/><path class="cls-4" d="M78.16,92.38l-.34-.11a1.59,1.59,0,0,0-1.3,2.81l.33.22,1.36.42,1.41.32,1.41.21,1.41.13,1.42,0"/><polyline class="cls-4" points="79 92.58 80.58 92.87 82.2 93.05 83.81 93.07"/><polyline class="cls-4" points="74.47 91.44 74.8 91.39 75.06 91.23 75.27 91.01 75.43 90.73 75.47 90.44"/><polyline class="cls-4" points="75.48 89.25 76.09 90.35 76.87 91.34"/><line class="cls-2" x1="74.52" y1="91.42" x2="74.01" y2="91.44"/><polyline class="cls-4" points="72.97 90.42 73.03 90.76 73.19 91.02 73.41 91.22 73.69 91.38 73.98 91.43"/><path class="cls-4" d="M68.3,81.55l-.05-.6a3.92,3.92,0,0,0-3.38-3.24l-.64,0"/><line class="cls-2" x1="51.34" y1="83.91" x2="51.49" y2="90.41"/><line class="cls-2" x1="48.96" y1="90.46" x2="48.86" y2="83.94"/><line class="cls-2" x1="70.5" y1="90.03" x2="70.37" y2="83.5"/><line class="cls-2" x1="67.87" y1="83.56" x2="68" y2="90.1"/><line class="cls-2" x1="64.24" y1="77.64" x2="54.72" y2="77.82"/><polyline class="cls-4" points="70.39 83.54 70.33 83.21 70.17 82.95 69.95 82.74 69.67 82.59 69.38 82.54"/><line class="cls-2" x1="69.35" y1="82.53" x2="68.84" y2="82.55"/><line class="cls-2" x1="68.36" y1="82.69" x2="68.33" y2="81.56"/><polyline class="cls-4" points="68.87 82.56 68.54 82.61 68.28 82.77 68.07 82.99 67.92 83.27 67.87 83.56"/><path class="cls-4" d="M54.71,77.85l-.6.05a3.92,3.92,0,0,0-3.24,3.38l0,.64"/><polyline class="cls-4" points="51.34 83.91 51.29 83.58 51.13 83.32 50.91 83.11 50.63 82.95 50.34 82.91"/><line class="cls-2" x1="50.8" y1="81.9" x2="50.82" y2="83.03"/><polyline class="cls-4" points="49.83 82.92 49.5 82.97 49.24 83.13 49.03 83.36 48.87 83.64 48.83 83.92"/><line class="cls-2" x1="49.83" y1="82.92" x2="50.34" y2="82.9"/><polyline class="cls-4" points="59.81 93.07 61.42 92.98 63.03 92.74 64.6 92.4"/><polyline class="cls-4" points="59.86 96.41 61.27 96.35 62.7 96.18 64.09 95.89 65.45 95.5 66.81 95.03"/><path class="cls-4" d="M66.82,95l.32-.21A1.58,1.58,0,0,0,65.76,92l-.36.12"/><polyline class="cls-4" points="66.67 91.07 67.38 90.02 67.96 88.92"/><line class="cls-2" x1="69.02" y1="91.06" x2="69.53" y2="91.05"/><polyline class="cls-4" points="68.02 90.06 68.07 90.39 68.23 90.65 68.45 90.86 68.73 91.02 69.02 91.06"/><polyline class="cls-4" points="69.5 91.03 69.83 90.98 70.09 90.82 70.3 90.6 70.45 90.32 70.5 90.03"/><polyline class="cls-4" points="64.62 92.37 65.19 92.19 65.75 91.88 66.22 91.5 66.68 91.04"/><polyline class="cls-4" points="52.87 91.34 53.31 91.75 53.81 92.12 54.35 92.39 54.97 92.57"/><path class="cls-4" d="M54.16,92.38l-.34-.11a1.59,1.59,0,0,0-1.3,2.81l.33.22,1.36.42,1.41.32,1.41.21,1.41.13,1.42,0"/><polyline class="cls-4" points="55 92.58 56.58 92.87 58.2 93.05 59.81 93.07"/><polyline class="cls-4" points="50.47 91.44 50.8 91.39 51.06 91.23 51.27 91.01 51.43 90.73 51.47 90.44"/><polyline class="cls-4" points="51.48 89.25 52.09 90.35 52.87 91.34"/><line class="cls-2" x1="50.52" y1="91.42" x2="50.01" y2="91.44"/><polyline class="cls-4" points="48.97 90.42 49.03 90.76 49.19 91.02 49.41 91.22 49.69 91.38 49.98 91.43"/><path class="cls-2" d="M78.42,71.18h21.76v-68H78.42V47.49l-29,.11s-10,1.81-10,11.79,10,11.79,10,11.79Z"/><line class="cls-5" x1="40.18" y1="113.18" x2="80.18" y2="113.18"/><rect class="cls-1" x="38.18" y="111.18" width="2" height="4"/></g></g></svg>