<svg xmlns="http://www.w3.org/2000/svg" viewBox="0 0 143.37 142.24"><defs><style>.cls-1,.cls-3,.cls-5,.cls-6,.cls-7,.cls-8{fill:none;stroke-linecap:round;}.cls-1,.cls-3,.cls-5,.cls-7,.cls-8{stroke:#000;}.cls-1,.cls-3,.cls-5,.cls-6,.cls-7{stroke-linejoin:round;}.cls-1,.cls-8{stroke-width:0.36px;}.cls-2{fill:#bababa;}.cls-2,.cls-4{fill-rule:evenodd;}.cls-3,.cls-6{stroke-width:0.54px;}.cls-4{fill:#dbdbdb;}.cls-5{stroke-width:0.24px;}.cls-6{stroke:#dbdbdb;}.cls-7{stroke-width:0.72px;}.cls-8{stroke-linejoin:bevel;}</style></defs><title>Asset 2</title><g id="Layer_2" data-name="Layer 2"><g id="Layer_3" data-name="Layer 3"><rect class="cls-1" x="17.07" y="67.09" width="66.62" height="20.79"/><path class="cls-1" d="M83.7,87.88"/><rect class="cls-1" x="17.07" y="17.07" width="66.62" height="16.69"/><path class="cls-1" d="M83.7,33.77"/><rect class="cls-1" x="17.07" y="33.77" width="16.66" height="33.33"/><polyline class="cls-2" points="128.39 0.27 143.1 17.07 128.39 17.07"/><polyline class="cls-2" points="128.39 0.27 143.1 0.27 143.1 17.07"/><polyline class="cls-2" points="88.84 0.27 103.56 17.07 88.84 17.07"/><polyline class="cls-2" points="88.84 0.27 103.56 0.27 103.56 17.07"/><polyline class="cls-2" points="49.27 0.27 63.98 17.07 49.27 17.07"/><polyline class="cls-2" points="49.27 0.27 63.98 0.27 63.98 17.07"/><polyline class="cls-2" points="0.27 0.27 24.43 17.07 0.27 17.07"/><polyline class="cls-2" points="0.27 0.27 24.43 0.27 24.43 17.07"/><polyline class="cls-2" points="0.27 17.07 17.07 24.43 0.27 24.43"/><polyline class="cls-2" points="0.27 17.07 17.07 17.07 17.07 24.43"/><polyline class="cls-2" points="0.27 49.3 17.07 64.01 0.27 64.01"/><polyline class="cls-2" points="0.27 49.3 17.07 49.3 17.07 64.01"/><polyline class="cls-2" points="0.27 88.87 17.07 113.88 0.27 113.88"/><polyline class="cls-2" points="0.27 88.87 17.07 88.87 17.07 113.88"/><line class="cls-3" x1="17.07" y1="17.1" x2="128.88" y2="17.1"/><polyline class="cls-3" points="17.07 17.07 24.43 17.07 24.43 8.16"/><polyline class="cls-3" points="24.43 5.76 24.43 0.27 0.27 0.27 0.27 24.43"/><polyline class="cls-3" points="49.27 17.07 63.98 17.07 63.98 8.16"/><polyline class="cls-3" points="63.98 5.76 63.98 0.27 49.27 0.27 49.27 5.76"/><line class="cls-3" x1="49.27" y1="8.16" x2="49.27" y2="17.07"/><polyline class="cls-3" points="88.84 17.07 103.56 17.07 103.56 8.16"/><polyline class="cls-3" points="103.56 5.76 103.56 0.27 88.84 0.27 88.84 5.76"/><line class="cls-3" x1="88.85" y1="8.16" x2="88.85" y2="17.07"/><line class="cls-3" x1="128.39" y1="17.07" x2="128.88" y2="17.07"/><polyline class="cls-3" points="142.6 17.07 143.1 17.07 143.1 0.27 128.39 0.27 128.39 5.76"/><polyline class="cls-3" points="128.39 8.16 128.39 17.07 103.56 17.07"/><line class="cls-3" x1="88.85" y1="17.07" x2="63.98" y2="17.07"/><line class="cls-3" x1="49.27" y1="17.07" x2="24.43" y2="17.07"/><line class="cls-3" x1="24.43" y1="0.27" x2="49.27" y2="0.27"/><line class="cls-3" x1="63.98" y1="0.27" x2="88.85" y2="0.27"/><line class="cls-3" x1="103.56" y1="0.27" x2="128.39" y2="0.27"/><polyline class="cls-3" points="17.07 141.97 17.07 138.75 8.16 138.75"/><polyline class="cls-3" points="5.73 138.75 0.27 138.75 0.27 141.97"/><polyline class="cls-3" points="17.07 103.53 17.07 88.87 8.16 88.87"/><polyline class="cls-3" points="5.73 88.87 0.27 88.87 0.27 103.53"/><line class="cls-3" x1="17.07" y1="49.3" x2="8.16" y2="49.3"/><polyline class="cls-3" points="5.73 49.3 0.27 49.3 0.27 64.01 5.73 64.01"/><line class="cls-3" x1="8.16" y1="64.01" x2="17.07" y2="64.01"/><line class="cls-3" x1="17.07" y1="24.43" x2="17.07" y2="17.07"/><line class="cls-3" x1="0.27" y1="24.43" x2="5.73" y2="24.43"/><line class="cls-3" x1="8.16" y1="24.43" x2="17.07" y2="24.43"/><line class="cls-3" x1="17.07" y1="17.1" x2="17.07" y2="93.03"/><line class="cls-3" x1="17.07" y1="103.53" x2="17.07" y2="138.75"/><line class="cls-3" x1="0.27" y1="138.75" x2="0.27" y2="103.53"/><line class="cls-3" x1="0.27" y1="88.87" x2="0.27" y2="64.01"/><line class="cls-3" x1="0.27" y1="49.3" x2="0.27" y2="24.43"/><polyline class="cls-4" points="8.16 137.36 6.95 138.75 6.95 137.36"/><polyline class="cls-4" points="8.16 137.36 8.16 138.75 6.95 138.75"/><polyline class="cls-4" points="6.95 137.36 6.24 138.75 6.24 137.36"/><polyline class="cls-4" points="6.95 137.36 6.95 138.75 6.24 138.75"/><polyline class="cls-4" points="8.16 113.88 6.24 115.27 6.24 113.88"/><polyline class="cls-4" points="8.16 113.88 8.16 115.27 6.24 115.27"/><polyline class="cls-4" points="6.24 137.36 5.73 138.75 5.73 137.36"/><polyline class="cls-4" points="6.24 137.36 6.24 138.75 5.73 138.75"/><polyline class="cls-4" points="6.24 113.88 5.73 115.27 5.73 113.88"/><polyline class="cls-4" points="6.24 113.88 6.24 115.27 5.73 115.27"/><polyline class="cls-4" points="6.95 115.27 6.24 137.36 6.24 115.27"/><polyline class="cls-4" points="6.95 115.27 6.95 137.36 6.24 137.36"/><rect class="cls-3" x="5.73" y="113.88" width="2.43" height="1.39"/><rect class="cls-3" x="5.73" y="137.36" width="2.43" height="1.39"/><line class="cls-5" x1="5.73" y1="115.27" x2="5.73" y2="137.36"/><line class="cls-5" x1="8.16" y1="137.36" x2="8.16" y2="115.27"/><rect class="cls-3" x="6.24" y="115.27" width="0.71" height="22.09"/><polyline class="cls-4" points="8.16 47.91 6.95 49.3 6.95 47.91"/><polyline class="cls-4" points="8.16 47.91 8.16 49.3 6.95 49.3"/><polyline class="cls-4" points="6.95 47.91 6.24 49.3 6.24 47.91"/><polyline class="cls-4" points="6.95 47.91 6.95 49.3 6.24 49.3"/><polyline class="cls-4" points="8.16 24.43 6.24 25.82 6.24 24.43"/><polyline class="cls-4" points="8.16 24.43 8.16 25.82 6.24 25.82"/><polyline class="cls-4" points="6.24 47.91 5.73 49.3 5.73 47.91"/><polyline class="cls-4" points="6.24 47.91 6.24 49.3 5.73 49.3"/><polyline class="cls-4" points="6.24 24.43 5.73 25.82 5.73 24.43"/><polyline class="cls-4" points="6.24 24.43 6.24 25.82 5.73 25.82"/><polyline class="cls-4" points="6.95 25.82 6.24 47.91 6.24 25.82"/><polyline class="cls-4" points="6.95 25.82 6.95 47.91 6.24 47.91"/><rect class="cls-3" x="5.73" y="24.43" width="2.43" height="1.39"/><rect class="cls-3" x="5.73" y="47.91" width="2.43" height="1.39"/><line class="cls-5" x1="5.73" y1="25.82" x2="5.73" y2="47.91"/><line class="cls-5" x1="8.16" y1="47.91" x2="8.16" y2="25.82"/><rect class="cls-3" x="6.24" y="25.82" width="0.71" height="22.09"/><polyline class="cls-4" points="8.16 87.49 6.95 88.87 6.95 87.49"/><polyline class="cls-4" points="8.16 87.49 8.16 88.87 6.95 88.87"/><polyline class="cls-4" points="6.95 87.49 6.24 88.87 6.24 87.49"/><polyline class="cls-4" points="6.95 87.49 6.95 88.87 6.24 88.87"/><polyline class="cls-4" points="8.16 64.01 6.24 65.39 6.24 64.01"/><polyline class="cls-4" points="8.16 64.01 8.16 65.39 6.24 65.39"/><polyline class="cls-4" points="6.24 87.49 5.73 88.87 5.73 87.49"/><polyline class="cls-4" points="6.24 87.49 6.24 88.87 5.73 88.87"/><polyline class="cls-4" points="6.24 64.01 5.73 65.39 5.73 64.01"/><polyline class="cls-4" points="6.24 64.01 6.24 65.39 5.73 65.39"/><polyline class="cls-4" points="6.95 65.39 6.24 87.49 6.24 65.39"/><polyline class="cls-4" points="6.95 65.39 6.95 87.49 6.24 87.49"/><rect class="cls-3" x="5.73" y="64.01" width="2.43" height="1.39"/><rect class="cls-3" x="5.73" y="87.49" width="2.43" height="1.39"/><line class="cls-5" x1="5.73" y1="65.39" x2="5.73" y2="87.49"/><line class="cls-5" x1="8.16" y1="87.49" x2="8.16" y2="65.39"/><rect class="cls-3" x="6.24" y="65.39" width="0.71" height="22.09"/><polyline class="cls-2" points="103.56 5.76 104.94 6.27 103.56 6.27"/><polyline class="cls-2" points="103.56 5.76 104.94 5.76 104.94 6.27"/><polyline class="cls-2" points="103.56 6.27 104.94 6.95 103.56 6.95"/><polyline class="cls-2" points="103.56 6.27 104.94 6.27 104.94 6.95"/><polyline class="cls-2" points="127.01 5.76 128.39 8.16 127.01 8.16"/><polyline class="cls-2" points="127.01 5.76 128.39 5.76 128.39 8.16"/><polyline class="cls-2" points="103.56 6.95 104.94 8.16 103.56 8.16"/><polyline class="cls-2" points="103.56 6.95 104.94 6.95 104.94 8.16"/><polyline class="cls-2" points="104.94 6.27 127.01 6.95 104.94 6.95"/><polyline class="cls-2" points="104.94 6.27 127.01 6.27 127.01 6.95"/><rect class="cls-3" x="103.56" y="5.76" width="1.39" height="2.4"/><rect class="cls-3" x="127.01" y="5.76" width="1.39" height="2.4"/><line class="cls-3" x1="104.94" y1="5.76" x2="127.01" y2="5.76"/><line class="cls-3" x1="127.01" y1="8.16" x2="104.94" y2="8.16"/><rect class="cls-3" x="104.94" y="6.27" width="22.07" height="0.68"/><polyline class="cls-2" points="63.98 5.76 65.36 6.27 63.98 6.27"/><polyline class="cls-2" points="63.98 5.76 65.36 5.76 65.36 6.27"/><polyline class="cls-2" points="63.98 6.27 65.36 6.95 63.98 6.95"/><polyline class="cls-2" points="63.98 6.27 65.36 6.27 65.36 6.95"/><polyline class="cls-2" points="87.46 5.76 88.84 8.16 87.46 8.16"/><polyline class="cls-2" points="87.46 5.76 88.84 5.76 88.84 8.16"/><polyline class="cls-2" points="63.98 6.95 65.36 8.16 63.98 8.16"/><polyline class="cls-2" points="63.98 6.95 65.36 6.95 65.36 8.16"/><polyline class="cls-2" points="65.36 6.27 87.46 6.95 65.36 6.95"/><polyline class="cls-2" points="65.36 6.27 87.46 6.27 87.46 6.95"/><rect class="cls-3" x="63.98" y="5.76" width="1.39" height="2.4"/><rect class="cls-3" x="87.46" y="5.76" width="1.39" height="2.4"/><line class="cls-3" x1="65.36" y1="5.76" x2="87.46" y2="5.76"/><line class="cls-3" x1="87.46" y1="8.16" x2="65.36" y2="8.16"/><rect class="cls-3" x="65.36" y="6.27" width="22.09" height="0.68"/><polyline class="cls-2" points="24.43 5.76 25.82 6.27 24.43 6.27"/><polyline class="cls-2" points="24.43 5.76 25.82 5.76 25.82 6.27"/><polyline class="cls-2" points="24.43 6.27 25.82 6.95 24.43 6.95"/><polyline class="cls-2" points="24.43 6.27 25.82 6.27 25.82 6.95"/><polyline class="cls-2" points="47.88 5.76 49.27 8.16 47.88 8.16"/><polyline class="cls-2" points="47.88 5.76 49.27 5.76 49.27 8.16"/><polyline class="cls-2" points="24.43 6.95 25.82 8.16 24.43 8.16"/><polyline class="cls-2" points="24.43 6.95 25.82 6.95 25.82 8.16"/><polyline class="cls-2" points="25.82 6.27 47.88 6.95 25.82 6.95"/><polyline class="cls-2" points="25.82 6.27 47.88 6.27 47.88 6.95"/><rect class="cls-3" x="24.43" y="5.76" width="1.39" height="2.4"/><rect class="cls-3" x="47.88" y="5.76" width="1.39" height="2.4"/><line class="cls-3" x1="25.82" y1="5.76" x2="47.88" y2="5.76"/><line class="cls-3" x1="47.88" y1="8.16" x2="25.82" y2="8.16"/><rect class="cls-3" x="25.82" y="6.27" width="22.07" height="0.68"/><polyline class="cls-3" points="142.6 28.11 142.6 17.07 128.88 17.07"/><line class="cls-3" x1="128.88" y1="17.1" x2="17.07" y2="17.1"/><line class="cls-3" x1="142.6" y1="141.97" x2="142.6" y2="17.07"/><polyline class="cls-3" points="139.37 17.07 139.37 138.75 135.27 138.75"/><line class="cls-3" x1="110.29" y1="138.75" x2="17.05" y2="138.75"/><line class="cls-3" x1="17.05" y1="141.97" x2="110.29" y2="141.97"/><line class="cls-3" x1="135.27" y1="141.97" x2="142.6" y2="141.97"/><rect class="cls-3" x="134.02" y="113.77" width="1.24" height="24.98"/><path class="cls-3" d="M135.27,113.77"/><path class="cls-3" d="M110.29,138.75l.06-1.64a25,25,0,0,1,23.28-23.28l1.64-.06"/><rect class="cls-3" x="108.93" y="138.75" width="1.36" height="3.23"/><path class="cls-3" d="M110.29,138.75"/><rect class="cls-3" x="135.27" y="138.75" width="1.36" height="3.23"/><path class="cls-3" d="M136.63,138.75"/><line class="cls-6" x1="63.98" y1="8.67" x2="88.85" y2="8.67"/><line class="cls-6" x1="8.67" y1="113.85" x2="8.67" y2="138.75"/><line class="cls-6" x1="8.67" y1="24.43" x2="8.67" y2="49.3"/><line class="cls-6" x1="8.67" y1="64.01" x2="8.67" y2="88.87"/><line class="cls-3" x1="0.27" y1="88.87" x2="17.07" y2="88.87"/><line class="cls-3" x1="0.27" y1="64.01" x2="17.07" y2="64.01"/><line class="cls-3" x1="0.27" y1="49.3" x2="17.07" y2="49.3"/><line class="cls-6" x1="24.43" y1="8.67" x2="49.27" y2="8.67"/><polyline class="cls-3" points="24.43 17.1 24.43 0.27 0.27 0.27 0.27 24.43 17.07 24.43"/><line class="cls-3" x1="63.98" y1="17.1" x2="63.98" y2="0.27"/><line class="cls-3" x1="49.27" y1="17.1" x2="49.27" y2="0.27"/><line class="cls-6" x1="103.56" y1="8.67" x2="128.39" y2="8.67"/><line class="cls-3" x1="103.56" y1="17.1" x2="103.56" y2="0.27"/><line class="cls-3" x1="88.85" y1="17.1" x2="88.85" y2="0.27"/><line class="cls-3" x1="128.39" y1="17.1" x2="128.39" y2="0.27"/><path class="cls-7" d="M129.3,128.9"/><path class="cls-7" d="M129.3,128.9"/><path class="cls-7" d="M129.3,128.9"/><line class="cls-3" x1="17.07" y1="141.97" x2="0.27" y2="141.97"/><path class="cls-7" d="M37.64,102.71"/><path class="cls-7" d="M37.64,102.71"/><path class="cls-7" d="M37.64,102.71"/><path class="cls-7" d="M37.64,102.71"/><path class="cls-7" d="M37.64,102.71"/><path class="cls-7" d="M37.64,102.71"/><path class="cls-7" d="M37.64,102.71"/><path class="cls-7" d="M37.64,102.71"/><path class="cls-7" d="M37.64,102.71"/><path class="cls-7" d="M37.64,102.71"/><path class="cls-7" d="M37.64,102.71"/><path class="cls-7" d="M37.64,102.71"/><path class="cls-8" d="M135.27,34.7l0-.93-.11-.93C132.4,18.2,112,19,110.35,33.77l0,.93,0,.93c1.63,14.79,22.06,15.56,24.78.93l.11-.93Z"/><line class="cls-1" x1="106.33" y1="23.81" x2="101.26" y2="22.62"/><line class="cls-1" x1="101.75" y1="20.67" x2="106.78" y2="21.88"/><line class="cls-1" x1="97.73" y1="37.36" x2="102.79" y2="38.55"/><line class="cls-1" x1="103.24" y1="36.62" x2="98.21" y2="35.41"/><line class="cls-1" x1="108.56" y1="35.01" x2="110.32" y2="27.65"/><path class="cls-8" d="M104.72,37.36l.48.08a3.2,3.2,0,0,0,3.17-2l.17-.48"/><polyline class="cls-8" points="102.76 38.55 103.02 38.57 103.27 38.52 103.47 38.38 103.64 38.21 103.73 37.98"/><line class="cls-1" x1="103.75" y1="37.98" x2="103.84" y2="37.58"/><line class="cls-1" x1="103.84" y1="37.16" x2="104.72" y2="37.39"/><polyline class="cls-8" points="103.84 37.58 103.87 37.33 103.81 37.08 103.67 36.88 103.5 36.71 103.27 36.62"/><path class="cls-8" d="M110.29,27.65l.08-.48a3.2,3.2,0,0,0-2-3.17l-.48-.17"/><polyline class="cls-8" points="106.3 23.81 106.56 23.84 106.81 23.78 107.01 23.64 107.18 23.47 107.26 23.24"/><line class="cls-1" x1="107.97" y1="23.81" x2="107.09" y2="23.58"/><polyline class="cls-8" points="107.35 22.84 107.38 22.59 107.32 22.34 107.18 22.14 107.01 21.97 106.78 21.88"/><line class="cls-1" x1="107.37" y1="22.85" x2="107.29" y2="23.24"/><polyline class="cls-8" points="97.56 28.5 97.3 29.78 97.16 31.05 97.11 32.32"/><path class="cls-8" d="M95,27.88l-.2,1.1-.17,1.13-.06,1.13,0,1.13.08,1.13.08.31a1.28,1.28,0,0,0,2.43-.54l0-.31"/><polyline class="cls-8" points="97.73 34.16 98.38 34.95 99.11 35.6"/><line class="cls-1" x1="97.25" y1="36" x2="97.16" y2="36.4"/><polyline class="cls-8" points="98.21 35.43 97.95 35.41 97.7 35.46 97.5 35.6 97.33 35.77 97.25 36"/><polyline class="cls-8" points="97.16 36.37 97.13 36.62 97.19 36.88 97.33 37.08 97.5 37.24 97.73 37.33"/><polyline class="cls-8" points="97.11 32.32 97.13 32.8 97.28 33.28 97.44 33.74 97.73 34.16"/><polyline class="cls-8" points="100.27 23.5 99.85 23.75 99.48 24.06 99.17 24.46 98.89 24.88"/><path class="cls-8" d="M99.23,24.32,99.4,24a1.28,1.28,0,0,0-1.92-1.56l-.23.23"/><polyline class="cls-8" points="97.22 22.68 96.63 23.64 96.09 24.66 95.64 25.67 95.27 26.75 94.96 27.85"/><polyline class="cls-8" points="98.89 24.88 98.35 26.04 97.9 27.26 97.56 28.5"/><polyline class="cls-8" points="100.7 21.63 100.67 21.88 100.73 22.14 100.87 22.34 101.04 22.51 101.26 22.59"/><polyline class="cls-8" points="102.2 22.84 101.24 23.1 100.3 23.5"/><line class="cls-1" x1="100.67" y1="21.66" x2="100.78" y2="21.26"/><polyline class="cls-8" points="101.75 20.7 101.49 20.67 101.24 20.72 101.04 20.86 100.87 21.04 100.78 21.26"/><line class="cls-1" x1="121.8" y1="55.75" x2="123.36" y2="60.67"/><line class="cls-1" x1="121.46" y1="61.29" x2="119.91" y2="56.34"/><line class="cls-1" x1="137.81" y1="56.11" x2="136.26" y2="51.19"/><line class="cls-1" x1="134.36" y1="51.79" x2="135.92" y2="56.74"/><line class="cls-1" x1="130.26" y1="48.05" x2="123.02" y2="50.34"/><path class="cls-8" d="M134.22,50.14l-.2-.45A3.18,3.18,0,0,0,130.71,48l-.48.11"/><polyline class="cls-8" points="136.26 51.19 136.15 50.97 135.98 50.77 135.75 50.65 135.5 50.63 135.27 50.65"/><line class="cls-1" x1="135.24" y1="50.65" x2="134.87" y2="50.77"/><line class="cls-1" x1="134.53" y1="50.99" x2="134.25" y2="50.14"/><polyline class="cls-8" points="134.87 50.77 134.65 50.88 134.45 51.05 134.34 51.28 134.31 51.53 134.34 51.76"/><path class="cls-8" d="M123,50.34l-.45.2a3.18,3.18,0,0,0-1.73,3.31l.11.48"/><polyline class="cls-8" points="121.8 55.75 121.69 55.52 121.52 55.32 121.29 55.21 121.04 55.18 120.81 55.21"/><line class="cls-1" x1="120.93" y1="54.33" x2="121.21" y2="55.21"/><polyline class="cls-8" points="120.42 55.32 120.19 55.44 119.99 55.6 119.88 55.83 119.85 56.09 119.88 56.31"/><line class="cls-1" x1="120.42" y1="55.32" x2="120.78" y2="55.21"/><polyline class="cls-8" points="130.29 60.87 131.51 60.41 132.69 59.91 133.83 59.25"/><path class="cls-8" d="M131.11,63.41l1.08-.4,1-.45,1-.54,1-.59.91-.68.2-.23a1.28,1.28,0,0,0-1.7-1.81l-.25.17"/><polyline class="cls-8" points="135.1 57.78 135.44 56.85 135.61 55.86"/><line class="cls-1" x1="136.91" y1="57.25" x2="137.28" y2="57.13"/><polyline class="cls-8" points="135.92 56.71 136.03 56.93 136.2 57.13 136.43 57.25 136.68 57.27 136.91 57.25"/><polyline class="cls-8" points="137.28 57.13 137.5 57.02 137.7 56.85 137.81 56.62 137.84 56.37 137.81 56.14"/><polyline class="cls-8" points="133.83 59.25 134.22 58.94 134.59 58.6 134.87 58.21 135.1 57.76"/><polyline class="cls-8" points="124.6 61.09 125.06 61.32 125.51 61.49 126.02 61.57 126.5 61.57"/><path class="cls-8" d="M125.88,61.57h-.31A1.28,1.28,0,0,0,125.2,64l.31.08"/><polyline class="cls-8" points="125.48 64.09 126.61 64.12 127.77 64.06 128.88 63.92 130.01 63.7 131.11 63.38"/><polyline class="cls-8" points="126.5 61.57 127.8 61.43 129.04 61.21 130.29 60.87"/><polyline class="cls-8" points="122.82 61.69 123.05 61.57 123.25 61.4 123.36 61.18 123.39 60.92 123.36 60.7"/><polyline class="cls-8" points="123.1 59.76 123.84 60.47 124.63 61.06"/><line class="cls-1" x1="122.82" y1="61.69" x2="122.45" y2="61.8"/><polyline class="cls-8" points="121.46 61.26 121.58 61.49 121.75 61.69 121.97 61.8 122.23 61.83 122.45 61.8"/><line class="cls-1" x1="52.04" y1="95.41" x2="52.04" y2="100.59"/><line class="cls-1" x1="54.05" y1="100.59" x2="54.05" y2="95.41"/><line class="cls-1" x1="36.91" y1="100.59" x2="36.91" y2="95.41"/><line class="cls-1" x1="38.89" y1="95.41" x2="38.89" y2="100.59"/><line class="cls-1" x1="41.69" y1="90.63" x2="49.27" y2="90.63"/><path class="cls-8" d="M41.69,90.66l-.51,0a3.23,3.23,0,0,0-2.63,2.63l0,.51"/><polyline class="cls-8" points="37.7 94.62 37.44 94.64 37.24 94.76 37.05 94.96 36.93 95.15 36.91 95.41"/><line class="cls-1" x1="37.7" y1="94.62" x2="38.09" y2="94.62"/><line class="cls-1" x1="38.49" y1="94.73" x2="38.49" y2="93.82"/><polyline class="cls-8" points="38.88 95.41 38.86 95.15 38.74 94.96 38.55 94.76 38.35 94.64 38.09 94.62"/><path class="cls-8" d="M52.44,93.82l0-.51a3.23,3.23,0,0,0-2.63-2.63l-.51,0"/><polyline class="cls-8" points="52.86 94.62 52.61 94.64 52.41 94.76 52.21 94.96 52.1 95.15 52.07 95.41"/><line class="cls-1" x1="52.44" y1="93.82" x2="52.44" y2="94.73"/><polyline class="cls-8" points="54.05 95.41 54.02 95.15 53.91 94.96 53.71 94.76 53.51 94.64 53.26 94.62"/><line class="cls-1" x1="53.26" y1="94.62" x2="52.86" y2="94.62"/><polyline class="cls-8" points="41.66 102.4 42.9 102.65 44.18 102.79 45.48 102.85"/><polyline class="cls-8" points="39.9 104.49 41.01 104.86 42.08 105.14 43.21 105.34 44.34 105.48 45.48 105.51"/><path class="cls-8" d="M41,102.23l-.31-.11a1.27,1.27,0,0,0-1,2.23l.25.17"/><polyline class="cls-8" points="38.91 99.65 39.4 100.53 39.99 101.35"/><line class="cls-1" x1="38.09" y1="101.41" x2="37.7" y2="101.41"/><polyline class="cls-8" points="38.09 101.38 38.35 101.35 38.55 101.24 38.74 101.04 38.86 100.84 38.88 100.58"/><polyline class="cls-8" points="36.91 100.58 36.93 100.84 37.05 101.04 37.24 101.24 37.44 101.35 37.7 101.38"/><polyline class="cls-8" points="39.99 101.35 40.33 101.72 40.72 102 41.18 102.23 41.63 102.4"/><polyline class="cls-8" points="49.3 102.4 49.75 102.23 50.2 102 50.6 101.72 50.94 101.35"/><path class="cls-8" d="M51,104.52l.25-.17a1.27,1.27,0,0,0-1-2.23l-.31.11"/><polyline class="cls-8" points="45.48 105.51 46.61 105.48 47.74 105.34 48.87 105.14 49.95 104.86 51.05 104.49"/><polyline class="cls-8" points="45.48 102.85 46.78 102.79 48.05 102.65 49.3 102.4"/><polyline class="cls-8" points="52.07 100.58 52.1 100.84 52.21 101.04 52.41 101.24 52.61 101.35 52.86 101.38"/><polyline class="cls-8" points="50.97 101.35 51.56 100.53 52.04 99.65"/><line class="cls-1" x1="52.86" y1="101.41" x2="53.26" y2="101.41"/><polyline class="cls-8" points="53.26 101.38 53.51 101.35 53.71 101.24 53.91 101.04 54.02 100.84 54.05 100.58"/><line class="cls-1" x1="72.78" y1="95.41" x2="72.78" y2="100.59"/><line class="cls-1" x1="74.79" y1="100.59" x2="74.79" y2="95.41"/><line class="cls-1" x1="57.64" y1="100.59" x2="57.64" y2="95.41"/><line class="cls-1" x1="59.62" y1="95.41" x2="59.62" y2="100.59"/><line class="cls-1" x1="62.42" y1="90.63" x2="70" y2="90.63"/><path class="cls-8" d="M62.42,90.66l-.51,0a3.23,3.23,0,0,0-2.63,2.63l0,.51"/><polyline class="cls-8" points="58.43 94.62 58.18 94.64 57.98 94.76 57.78 94.96 57.67 95.15 57.64 95.41"/><line class="cls-1" x1="58.43" y1="94.62" x2="58.83" y2="94.62"/><line class="cls-1" x1="59.23" y1="94.73" x2="59.23" y2="93.82"/><polyline class="cls-8" points="59.62 95.41 59.59 95.15 59.48 94.96 59.28 94.76 59.08 94.64 58.83 94.62"/><path class="cls-8" d="M73.17,93.82l0-.51a3.23,3.23,0,0,0-2.63-2.63l-.51,0"/><polyline class="cls-8" points="73.6 94.62 73.34 94.64 73.14 94.76 72.95 94.96 72.83 95.15 72.81 95.41"/><line class="cls-1" x1="73.17" y1="93.82" x2="73.17" y2="94.73"/><polyline class="cls-8" points="74.78 95.41 74.76 95.15 74.64 94.96 74.45 94.76 74.25 94.64 73.99 94.62"/><line class="cls-1" x1="73.99" y1="94.62" x2="73.6" y2="94.62"/><polyline class="cls-8" points="62.39 102.4 63.64 102.65 64.91 102.79 66.21 102.85"/><polyline class="cls-8" points="60.64 104.49 61.74 104.86 62.82 105.14 63.95 105.34 65.08 105.48 66.21 105.51"/><path class="cls-8" d="M61.74,102.23l-.31-.11a1.27,1.27,0,0,0-1,2.23l.25.17"/><polyline class="cls-8" points="59.65 99.65 60.13 100.53 60.73 101.35"/><line class="cls-1" x1="58.83" y1="101.41" x2="58.43" y2="101.41"/><polyline class="cls-8" points="58.83 101.38 59.08 101.35 59.28 101.24 59.48 101.04 59.59 100.84 59.62 100.58"/><polyline class="cls-8" points="57.64 100.58 57.67 100.84 57.78 101.04 57.98 101.24 58.18 101.35 58.43 101.38"/><polyline class="cls-8" points="60.73 101.35 61.06 101.72 61.46 102 61.91 102.23 62.37 102.4"/><polyline class="cls-8" points="70.03 102.4 70.48 102.23 70.94 102 71.33 101.72 71.67 101.35"/><path class="cls-8" d="M71.76,104.52l.25-.17a1.27,1.27,0,0,0-1-2.23l-.31.11"/><polyline class="cls-8" points="66.21 105.51 67.34 105.48 68.48 105.34 69.61 105.14 70.68 104.86 71.79 104.49"/><polyline class="cls-8" points="66.21 102.85 67.52 102.79 68.79 102.65 70.03 102.4"/><polyline class="cls-8" points="72.81 100.58 72.83 100.84 72.95 101.04 73.14 101.24 73.34 101.35 73.6 101.38"/><polyline class="cls-8" points="71.7 101.35 72.3 100.53 72.78 99.65"/><line class="cls-1" x1="73.6" y1="101.41" x2="73.99" y2="101.41"/><polyline class="cls-8" points="73.99 101.38 74.25 101.35 74.45 101.24 74.64 101.04 74.76 100.84 74.78 100.58"/><line class="cls-1" x1="48.42" y1="61.01" x2="48.42" y2="55.8"/><line class="cls-1" x1="46.44" y1="55.8" x2="46.44" y2="61.01"/><line class="cls-1" x1="63.58" y1="55.8" x2="63.58" y2="61.01"/><line class="cls-1" x1="61.57" y1="61.01" x2="61.57" y2="55.8"/><line class="cls-1" x1="58.8" y1="65.79" x2="51.22" y2="65.79"/><path class="cls-8" d="M58.8,65.76l.51,0a3.23,3.23,0,0,0,2.63-2.63l0-.51"/><polyline class="cls-8" points="62.79 61.8 63.05 61.77 63.24 61.66 63.44 61.46 63.55 61.26 63.58 61.01"/><line class="cls-1" x1="62.79" y1="61.8" x2="62.39" y2="61.8"/><line class="cls-1" x1="62" y1="61.69" x2="62" y2="62.59"/><polyline class="cls-8" points="61.6 61.01 61.63 61.26 61.74 61.46 61.94 61.66 62.14 61.77 62.39 61.8"/><path class="cls-8" d="M48.05,62.59l0,.51a3.23,3.23,0,0,0,2.63,2.63l.51,0"/><polyline class="cls-8" points="47.63 61.8 47.88 61.77 48.08 61.66 48.28 61.46 48.39 61.26 48.42 61.01"/><line class="cls-1" x1="48.02" y1="62.59" x2="48.02" y2="61.69"/><polyline class="cls-8" points="46.44 61.01 46.47 61.26 46.58 61.46 46.78 61.66 46.98 61.77 47.23 61.8"/><line class="cls-1" x1="47.23" y1="61.8" x2="47.63" y2="61.8"/><polyline class="cls-8" points="58.83 54.02 57.59 53.77 56.31 53.62 55.01 53.57"/><polyline class="cls-8" points="60.58 51.93 59.48 51.56 58.41 51.28 57.27 51.08 56.14 50.94 55.01 50.91"/><path class="cls-8" d="M59.45,54.19l.31.11a1.27,1.27,0,0,0,1-2.23l-.25-.17"/><polyline class="cls-8" points="61.57 56.74 61.09 55.86 60.5 55.04"/><line class="cls-1" x1="62.39" y1="55.01" x2="62.79" y2="55.01"/><polyline class="cls-8" points="62.39 55.01 62.14 55.04 61.94 55.15 61.74 55.35 61.63 55.55 61.6 55.8"/><polyline class="cls-8" points="63.58 55.8 63.55 55.55 63.44 55.35 63.24 55.15 63.05 55.04 62.79 55.01"/><polyline class="cls-8" points="60.47 55.07 60.13 54.7 59.73 54.42 59.28 54.19 58.83 54.02"/><polyline class="cls-8" points="51.16 54.02 50.71 54.19 50.26 54.42 49.86 54.7 49.52 55.07"/><path class="cls-8" d="M49.44,51.9l-.25.17a1.27,1.27,0,0,0,1,2.23l.31-.11"/><polyline class="cls-8" points="55.01 50.91 53.88 50.94 52.75 51.08 51.62 51.28 50.54 51.56 49.44 51.93"/><polyline class="cls-8" points="55.01 53.57 53.71 53.62 52.44 53.77 51.19 54.02"/><polyline class="cls-8" points="48.42 55.8 48.39 55.55 48.28 55.35 48.08 55.15 47.88 55.04 47.63 55.01"/><polyline class="cls-8" points="49.52 55.04 48.93 55.86 48.45 56.74"/><line class="cls-1" x1="47.63" y1="55.01" x2="47.23" y2="55.01"/><polyline class="cls-8" points="47.23 55.01 46.98 55.04 46.78 55.15 46.58 55.35 46.47 55.55 46.44 55.8"/><line class="cls-3" x1="17.07" y1="113.88" x2="0.27" y2="113.88"/></g></g></svg>